<svg xmlns="http://www.w3.org/2000/svg" viewBox="0 0 750 500"><g id="freepik--background-complete--inject-70"><rect x="179.47" y="90.23" width="106.48" height="95.27" style="fill:#fafafa"></rect><path d="M286,185.49s0-.61,0-1.76,0-2.88,0-5.11c0-4.47,0-11-.06-19.34,0-16.64-.07-40.43-.12-69l.24.24-106.48,0h0l.28-.28c0,34.66,0,67.27,0,95.26l-.25-.25,77,.13,21.72.07,5.76,0h2l-.48,0H284l-5.7,0-21.67.07-77.17.12h-.26v-.26c0-28,0-60.6,0-95.26v-.29h.29L286,90h.24v.24c-.05,28.69-.09,52.52-.12,69.21,0,8.3-.05,14.82-.07,19.28,0,2.21,0,3.9,0,5.06S286,185.49,286,185.49Z" style="fill:#e0e0e0"></path><path d="M220.3,107.15c0,.16-5.61.29-12.52.29s-12.52-.13-12.52-.29,5.6-.28,12.52-.28S220.3,107,220.3,107.15Z" style="fill:#e0e0e0"></path><path d="M265.41,114.31c0,.15-15.39.28-34.38.28s-34.4-.13-34.4-.28S212,114,231,114,265.41,114.15,265.41,114.31Z" style="fill:#e0e0e0"></path><rect x="195.44" y="126.42" width="4.49" height="4.49" style="fill:#e0e0e0"></rect><rect x="206.49" y="126.42" width="4.49" height="4.49" style="fill:#e0e0e0"></rect><rect x="217.73" y="126.22" width="4.49" height="4.49" style="fill:#e0e0e0"></rect><rect x="228.57" y="126.42" width="4.49" height="4.49" style="fill:#e0e0e0"></rect><rect x="239.61" y="126.42" width="4.49" height="4.49" style="fill:#e0e0e0"></rect><rect x="250.66" y="126.42" width="4.49" height="4.49" style="fill:#e0e0e0"></rect><rect x="261.7" y="126.42" width="4.49" height="4.49" style="fill:#ebebeb"></rect><rect x="195.44" y="135.96" width="4.49" height="4.49" style="fill:#ebebeb"></rect><rect x="206.49" y="135.96" width="4.49" height="4.49" style="fill:#e0e0e0"></rect><rect x="217.53" y="135.96" width="4.49" height="4.49" style="fill:#ebebeb"></rect><rect x="228.57" y="135.96" width="4.49" height="4.49" style="fill:#e0e0e0"></rect><rect x="239.61" y="135.96" width="4.49" height="4.49" style="fill:#e0e0e0"></rect><rect x="250.86" y="135.76" width="4.49" height="4.49" style="fill:#e0e0e0"></rect><rect x="261.7" y="135.96" width="4.49" height="4.49" style="fill:#e0e0e0"></rect><rect x="195.44" y="145.5" width="4.49" height="4.49" style="fill:#e0e0e0"></rect><rect x="206.69" y="145.29" width="4.49" height="4.49" style="fill:#e0e0e0"></rect><rect x="217.53" y="145.5" width="4.49" height="4.49" style="fill:#e0e0e0"></rect><rect x="228.57" y="145.5" width="4.49" height="4.49" style="fill:#ebebeb"></rect><rect x="239.61" y="145.5" width="4.49" height="4.49" style="fill:#e0e0e0"></rect><rect x="250.66" y="145.5" width="4.49" height="4.49" style="fill:#e0e0e0"></rect><rect x="261.7" y="145.5" width="4.49" height="4.49" style="fill:#e0e0e0"></rect><rect x="195.44" y="155.04" width="4.49" height="4.49" style="fill:#e0e0e0"></rect><rect x="206.49" y="155.04" width="4.49" height="4.49" style="fill:#e0e0e0"></rect><rect x="217.53" y="155.04" width="4.49" height="4.49" style="fill:#e0e0e0"></rect><rect x="228.78" y="154.83" width="4.49" height="4.49" style="fill:#e0e0e0"></rect><rect x="239.61" y="155.04" width="4.49" height="4.49" style="fill:#e0e0e0"></rect><rect x="250.66" y="155.04" width="4.49" height="4.49" style="fill:#ebebeb"></rect><rect x="261.7" y="155.04" width="4.49" height="4.49" style="fill:#e0e0e0"></rect><rect x="195.44" y="164.57" width="4.49" height="4.49" style="fill:#e0e0e0"></rect><rect x="206.49" y="164.57" width="4.49" height="4.49" style="fill:#ebebeb"></rect><rect x="217.53" y="164.57" width="4.49" height="4.49" style="fill:#e0e0e0"></rect><rect x="228.57" y="164.57" width="4.49" height="4.49" style="fill:#e0e0e0"></rect><rect x="239.61" y="164.57" width="4.49" height="4.49" style="fill:#e0e0e0"></rect><rect x="250.86" y="164.37" width="4.49" height="4.49" style="fill:#e0e0e0"></rect><rect x="261.7" y="164.57" width="4.49" height="4.49" style="fill:#e0e0e0"></rect><path d="M641.85,63.62s-.06,0-.17,0l-.48-.19-1.85-.77-6.74-2.89-22.2-9.66-.76-.34h.16L588.06,59l-6.58,2.76-1.79.73a3.13,3.13,0,0,1-.64.23,5,5,0,0,1,.6-.3l1.77-.8L588,58.76l21.7-9.41.08,0,.08,0,.77.34,22.14,9.77,6.7,3,1.81.84.47.22Z" style="fill:#e0e0e0"></path><rect x="533.93" y="60.43" width="142.54" height="106.73" style="fill:#e0e0e0"></rect><rect x="538.91" y="65.4" width="133.11" height="97.38" style="fill:#fafafa"></rect><path d="M568.31,107.94s.14,16.35,1,21.34l20.51-1s-1.8-16.07-1.11-20.37Z" style="fill:#e0e0e0"></path><path d="M578.41,110.26s0,0,.08,0h.22a5.68,5.68,0,0,1,.85,0,4.67,4.67,0,0,1,1.3.39,4.15,4.15,0,0,1,1.42,1.12,5,5,0,0,1,1,2,4.73,4.73,0,0,1-.22,2.53,7.08,7.08,0,0,1-.57,1.26,11.89,11.89,0,0,0-.66,1.28,11.11,11.11,0,0,0-.83,2.91v.07h-.06l-2,0-2.12,0h-.08v-.08a6.08,6.08,0,0,0-1-2.8c-.24-.42-.51-.81-.76-1.21a10.34,10.34,0,0,1-.72-1.18,3.85,3.85,0,0,1-.32-2.49,5.2,5.2,0,0,1,.79-2,4,4,0,0,1,1.33-1.2,5,5,0,0,1,1.26-.49,5.28,5.28,0,0,1,.84-.13h.22s.07,0,.07,0h-.07l-.22,0a5,5,0,0,0-.83.16,4.89,4.89,0,0,0-1.23.5,4,4,0,0,0-1.29,1.19,5.07,5.07,0,0,0-.75,2,3.73,3.73,0,0,0,.32,2.41,10.45,10.45,0,0,0,.72,1.16c.25.39.52.79.77,1.22a6.21,6.21,0,0,1,1,2.87l-.08-.08,2.13,0,2,0-.07.07a11.26,11.26,0,0,1,.84-3c.2-.45.44-.88.67-1.29a6.9,6.9,0,0,0,.57-1.24,4.58,4.58,0,0,0,.23-2.46,4.79,4.79,0,0,0-.95-1.93,4.11,4.11,0,0,0-1.37-1.12,4.62,4.62,0,0,0-1.28-.4,5.07,5.07,0,0,0-.84-.07h-.3Z" style="fill:#fff"></path><path d="M579.46,121.64a.28.28,0,0,0,0-.06l0-.19c0-.17-.06-.42-.11-.73-.09-.64-.23-1.56-.32-2.71q0-.42-.06-.9c0-.31,0-.64,0-1a2.65,2.65,0,0,1,.23-1,1.58,1.58,0,0,1,.78-.79,1.06,1.06,0,0,1,1.12.22.8.8,0,0,1,.24.56,1,1,0,0,1-.21.58,1.22,1.22,0,0,1-.5.4,2.23,2.23,0,0,1-.6.2,7.42,7.42,0,0,1-2.6.09,2.31,2.31,0,0,1-.62-.18,1.53,1.53,0,0,1-.51-.36,1.15,1.15,0,0,1-.3-.55.91.91,0,0,1,.07-.61.88.88,0,0,1,.43-.42.77.77,0,0,1,.58,0,1.14,1.14,0,0,1,.44.37,1.64,1.64,0,0,1,.22.51,6.42,6.42,0,0,1,.1,1.05c0,.67.07,1.3.1,1.88.06,1.14.1,2.07.13,2.71,0,.32,0,.57,0,.74v.26a.15.15,0,0,1,0-.06v-.2l0-.73c0-.65-.09-1.58-.16-2.72,0-.58-.07-1.21-.1-1.88a7.5,7.5,0,0,0-.11-1,1.51,1.51,0,0,0-.21-.49,1.08,1.08,0,0,0-.41-.35.72.72,0,0,0-.54,0,.74.74,0,0,0-.39.39.78.78,0,0,0-.07.56,1,1,0,0,0,.28.52,1.85,1.85,0,0,0,1.1.53,7.86,7.86,0,0,0,1.29.06,6.69,6.69,0,0,0,1.28-.15,2.47,2.47,0,0,0,.6-.19,1.46,1.46,0,0,0,.47-.38,1,1,0,0,0,.2-.55.75.75,0,0,0-.22-.52,1,1,0,0,0-1.06-.2,1.48,1.48,0,0,0-.75.75,2.75,2.75,0,0,0-.23,1c0,.34,0,.67,0,1s0,.61,0,.9c.09,1.14.22,2.07.3,2.7l.1.74,0,.19Z" style="fill:#fff"></path><path d="M576.76,121.75s0,.26.06.68,0,1.09.09,1.78l0,0,1.38,1.59-.07,0,1.6-.09-.07,0,.79-1,.4-.48,0,.06c0-.94,0-1.82-.06-2.63l.09.08-3,0h-1.19l.29,0,.84,0,3-.12H581v.08c0,.81,0,1.7.08,2.63v0l0,0c-.13.16-.26.33-.4.49l-.8,1,0,0h0l-1.6.08h0l0,0-1.35-1.61,0,0v0c0-.7,0-1.31,0-1.82A6.1,6.1,0,0,1,576.76,121.75Z" style="fill:#fff"></path><path d="M580.88,124.06l-.15-.06a3,3,0,0,0-.41-.17,4.4,4.4,0,0,0-1.44-.22,4.29,4.29,0,0,0-1.43.31,4,4,0,0,0-.4.19l-.15.07.14-.09a2.56,2.56,0,0,1,.39-.21,3.83,3.83,0,0,1,2.9-.09,3.66,3.66,0,0,1,.41.18Z" style="fill:#fff"></path><path d="M580.88,123.42s0,0-.15-.06l-.41-.17a4.17,4.17,0,0,0-1.44-.21,4.07,4.07,0,0,0-1.43.3,4,4,0,0,0-.4.19l-.15.07.13-.09a3.43,3.43,0,0,1,.4-.21,3.83,3.83,0,0,1,2.9-.09,3.38,3.38,0,0,1,.41.19Z" style="fill:#fff"></path><path d="M580.84,122.82l-.15-.07c-.09,0-.23-.1-.41-.16a3.89,3.89,0,0,0-1.44-.22,4.31,4.31,0,0,0-1.43.3l-.4.19-.15.08.14-.1c.09,0,.22-.13.39-.21a4.09,4.09,0,0,1,1.45-.33,3.86,3.86,0,0,1,1.45.25,2.43,2.43,0,0,1,.41.18C580.8,122.78,580.85,122.81,580.84,122.82Z" style="fill:#fff"></path><path d="M545.48,81.22s.14,16.35,1,21.33l20.5-1s-1.8-16.07-1.11-20.36Z" style="fill:#ebebeb"></path><path d="M562.75,88.09a60.46,60.46,0,0,1-6.86.61,58.75,58.75,0,0,1-6.9.21,60.8,60.8,0,0,1,6.87-.61A56.11,56.11,0,0,1,562.75,88.09Z" style="fill:#fff"></path><path d="M562.76,91.55a60.8,60.8,0,0,1-6.87.61,60.07,60.07,0,0,1-6.89.22,115.84,115.84,0,0,1,13.76-.83Z" style="fill:#fff"></path><path d="M559.27,95a39.47,39.47,0,0,1-7.84.47,19.43,19.43,0,0,1,3.91-.44A19.14,19.14,0,0,1,559.27,95Z" style="fill:#fff"></path><path d="M544.51,129.31s.14,16.35,1,21.34l20.5-1s-1.8-16.07-1.11-20.37Z" style="fill:#ebebeb"></path><path d="M561.78,136.18a57.85,57.85,0,0,1-6.87.61A60.07,60.07,0,0,1,548,137a59.33,59.33,0,0,1,6.87-.62A61.34,61.34,0,0,1,561.78,136.18Z" style="fill:#fff"></path><path d="M561.79,139.64a59.33,59.33,0,0,1-6.87.62,58.59,58.59,0,0,1-6.89.21,57.85,57.85,0,0,1,6.87-.61A60.07,60.07,0,0,1,561.79,139.64Z" style="fill:#fff"></path><path d="M558.3,143a37.56,37.56,0,0,1-7.84.47,19.9,19.9,0,0,1,3.91-.43A19.63,19.63,0,0,1,558.3,143Z" style="fill:#fff"></path><polygon points="600.54 85.55 602.57 132.7 661.43 133.41 658.79 86.17 600.54 85.55" style="fill:#ebebeb"></polygon><rect x="599.86" y="85.21" width="58.47" height="44.15" style="fill:#f5f5f5"></rect><path d="M658.33,129.36s0-.28,0-.81,0-1.34,0-2.36c0-2.07,0-5.09,0-8.93,0-7.7,0-18.72-.09-32.05l.17.17-58.47,0h0l.2-.21c0,15.88,0,30.92,0,44.15l-.18-.18,42.17.09,12,0,3.19,0h.84l-.8,0-3.16,0-12,.05-42.29.09h-.18v-.19c0-13.23,0-28.27,0-44.15V85h.2l58.47,0h.16v.16c0,13.37-.06,24.43-.08,32.15,0,3.83,0,6.83,0,8.9,0,1,0,1.78,0,2.32S658.33,129.36,658.33,129.36Z" style="fill:#e0e0e0"></path><rect x="606.91" y="94.57" width="23.7" height="29.83" style="fill:#f5f5f5"></rect><path d="M630.61,124.4a1.36,1.36,0,0,0,0-.15v-.43c0-.39,0-.93,0-1.63,0-1.44,0-3.51-.05-6.12,0-5.25,0-12.68-.09-21.5l.18.18-23.7,0,.2-.2h0v8.11q0,4,0,7.74c0,5,0,9.7,0,14l-.17-.17,17.16.09,4.82,0,1.27,0a4,4,0,0,1,.45,0l-.41,0H629l-4.77,0-17.27.08h-.17v-.16c0-4.27,0-9,0-14,0-2.51,0-5.09,0-7.74V94.58h0l.2-.2,23.7,0h.18v.18c0,8.87-.07,16.34-.09,21.62,0,2.59,0,4.65-.05,6.08,0,.68,0,1.21,0,1.59,0,.17,0,.3,0,.41S630.62,124.4,630.61,124.4Z" style="fill:#e0e0e0"></path><rect x="607.82" y="87.74" width="45.42" height="4.3" style="fill:#f5f5f5"></rect><path d="M653.24,92s0-.11,0-.29,0-.49,0-.84c0-.75,0-1.81-.05-3.17l.08.08c-7.66.07-25.12.12-45.42.12h0l.2-.2h0V92l-.2-.2,32.2.08,9.66.06,2.63,0,.69,0a.87.87,0,0,1,.24,0H653l-.67,0-2.58,0-9.62.05-32.34.09h-.2V87.77h0l.2-.2h0c20.3,0,37.76,0,45.42.12h.08v.08c0,1.38,0,2.46,0,3.22l0,.81A1.27,1.27,0,0,1,653.24,92Z" style="fill:#e0e0e0"></path><rect x="633.51" y="94.57" width="19.73" height="17.98" style="fill:#f5f5f5"></rect><path d="M653.24,112.55s0-.13,0-.35,0-.57,0-1c0-.88,0-2.11,0-3.66,0-3.17,0-7.63-.09-13l.17.17-19.72,0,.2-.2h0V97c0,.81,0,1.61,0,2.4V104c0,3,0,5.88,0,8.52l-.18-.18,14.23.09,4,0,1.08,0a1.59,1.59,0,0,1,.38,0l-.34,0-1,0-4,0-14.35.09h-.17v-.17c0-2.64,0-5.5,0-8.52V99.4c0-.79,0-1.59,0-2.4V94.58h0c-.18.18.25-.25.21-.2l19.72,0h.17v.17c0,5.4-.06,9.91-.08,13.1,0,1.53,0,2.75-.05,3.62,0,.39,0,.7,0,.95A1,1,0,0,1,653.24,112.55Z" style="fill:#e0e0e0"></path><rect x="633.51" y="115.36" width="19.73" height="9.03" style="fill:#f5f5f5"></rect><path d="M653.24,124.4a6.13,6.13,0,0,1,0-.66c0-.45,0-1.06,0-1.81,0-1.6,0-3.83-.07-6.57l.14.15-19.72,0,.2-.2h0v1.17c0,.39,0,.78,0,1.17v6.68l-.2-.19,14.11.09,4.11,0,1.11,0,.4,0-.35,0-1.07,0-4.07.06-14.24.09h-.19V120c0-.76,0-1.52,0-2.3v-2.34h0s.38-.38.21-.2l19.72.06h.15v.14c0,2.78-.06,5-.08,6.66,0,.74,0,1.33,0,1.78A4.35,4.35,0,0,1,653.24,124.4Z" style="fill:#e0e0e0"></path><path d="M630,94.62c-7.34,10.13-15.78,19.64-23.12,29.78" style="fill:#fff"></path><path d="M606.91,124.4a1.61,1.61,0,0,1,.19-.34c.17-.24.38-.54.62-.9.55-.79,1.36-1.91,2.38-3.28,2-2.74,4.95-6.44,8.21-10.5s6.21-7.73,8.3-10.42l2.48-3.19.68-.87c.16-.19.25-.29.26-.28a1.55,1.55,0,0,1-.2.33l-.62.91c-.54.79-1.35,1.9-2.37,3.27-2,2.74-5,6.45-8.22,10.5s-6.21,7.73-8.3,10.43l-2.47,3.19-.68.86A1.79,1.79,0,0,1,606.91,124.4Z" style="fill:#e0e0e0"></path><line x1="606.91" y1="94.57" x2="630.61" y2="124.4" style="fill:#fff"></line><path d="M630.61,124.4c-.08.07-5.46-6.56-12-14.79s-11.79-15-11.7-15,5.46,6.55,12,14.79S630.7,124.33,630.61,124.4Z" style="fill:#e0e0e0"></path><path d="M602.57,94.63a3.71,3.71,0,1,1-3.71-3.71A3.71,3.71,0,0,1,602.57,94.63Z" style="fill:#e0e0e0"></path><path d="M663.21,85.63a3.71,3.71,0,1,1-3.7-3.71A3.71,3.71,0,0,1,663.21,85.63Z" style="fill:#e0e0e0"></path><rect x="55.5" y="53.64" width="61.22" height="63.81" style="fill:#e0e0e0"></rect><rect x="51.35" y="53.64" width="61.22" height="63.81" style="fill:#f5f5f5"></rect><path d="M112.59,117.48H51.33V53.63h61.26Zm-61.22,0h61.18V53.66H51.37Z" style="fill:#e0e0e0"></path><rect x="59.58" y="62.22" width="44.76" height="46.66" style="fill:#fff"></rect><path d="M59.58,109.19a7.35,7.35,0,0,1-1.1,1.29c-.72.75-1.72,1.77-2.85,2.88s-2.16,2.1-2.92,2.8a8,8,0,0,1-1.3,1.08,7.12,7.12,0,0,1,1.1-1.28c.72-.76,1.72-1.78,2.85-2.89s2.17-2.11,2.93-2.81A7.57,7.57,0,0,1,59.58,109.19Z" style="fill:#e0e0e0"></path><path d="M104.34,109.08a7.12,7.12,0,0,1,1.28,1.1c.76.72,1.78,1.72,2.89,2.85s2.1,2.16,2.8,2.92a6.75,6.75,0,0,1,1.07,1.29,7.34,7.34,0,0,1-1.27-1.09c-.76-.72-1.78-1.73-2.89-2.86s-2.11-2.16-2.81-2.93A7.33,7.33,0,0,1,104.34,109.08Z" style="fill:#e0e0e0"></path><path d="M104.22,62.35a7.35,7.35,0,0,1,1.1-1.29c.72-.75,1.72-1.77,2.85-2.88s2.16-2.1,2.92-2.8a7.55,7.55,0,0,1,1.29-1.08,6.76,6.76,0,0,1-1.09,1.28c-.72.76-1.73,1.78-2.86,2.89s-2.16,2.1-2.93,2.81A7.33,7.33,0,0,1,104.22,62.35Z" style="fill:#e0e0e0"></path><path d="M59.46,62.46a7.35,7.35,0,0,1-1.29-1.1c-.75-.72-1.77-1.72-2.88-2.85s-2.1-2.16-2.8-2.92a7.55,7.55,0,0,1-1.08-1.29,6.76,6.76,0,0,1,1.28,1.09c.76.72,1.78,1.73,2.89,2.86s2.1,2.16,2.81,2.92A7.57,7.57,0,0,1,59.46,62.46Z" style="fill:#e0e0e0"></path><path d="M104.22,108.88a.82.82,0,0,1,0-.23c0-.16,0-.37,0-.65,0-.58,0-1.42,0-2.52,0-2.21,0-5.42-.05-9.5,0-8.18,0-19.82-.09-33.76l.18.18-44.64,0h0l.2-.2c0,17.13,0,33.15,0,46.66l-.17-.17,32.32.09,9.08,0,2.4,0h0l-2.37,0-9,0-32.43.09h-.17v-.17c0-13.51,0-29.53,0-46.66V62h.2l44.64,0h.17v.17c0,14-.07,25.67-.09,33.87,0,4.06,0,7.26,0,9.47,0,1.07,0,1.9,0,2.48,0,.27,0,.48,0,.63S104.22,108.88,104.22,108.88Z" style="fill:#e0e0e0"></path><rect x="74.49" y="78.08" width="14.94" height="14.94" style="fill:#ebebeb"></rect><path d="M665.73,408.61c4.29-2.88,9.62-3.82,14.79-3.57,2.77.13,5.7.61,7.79,2.44s2.87,5.38,1,7.39a7.17,7.17,0,0,1-4.54,1.73c-4,.42-8.45.23-11.34,3-1.65,1.57-2.59,4-4.67,4.9a5.14,5.14,0,0,1-5.91-1.85,8.8,8.8,0,0,1-1.39-6.37A9.9,9.9,0,0,1,665.73,408.61Z" style="fill:#ebebeb"></path><path d="M654.63,399.32c3.26,3.66,8.53,1.7,10.76-1s2.88-6.38,3.45-9.85c1.31-7.94,2.6-16.26,0-23.89a13.09,13.09,0,0,0-3.76-6.05,6.89,6.89,0,0,0-6.73-1.4c-2.65,1-4,3.92-5,6.61a56.53,56.53,0,0,0-2.74,24.75c.45,3.88,1.38,7.9,3.94,10.85" style="fill:#ebebeb"></path><path d="M647.64,405.93c2.61-3.95,2.57-9.26.7-13.6s-5.37-7.82-9.25-10.54a42.92,42.92,0,0,0-15.12-6.7,15.17,15.17,0,0,0-6.49-.33,6.76,6.76,0,0,0-5,3.85c-1.15,3,.68,6.3,2.55,8.93a109.29,109.29,0,0,0,11,13.06c3.21,3.27,6.81,6.44,11.25,7.56s8.82.42,10.73-2.78" style="fill:#ebebeb"></path><path d="M659.76,449.79a9.18,9.18,0,0,0,0-1.84c0-1.34-.06-3-.1-5a70.73,70.73,0,0,1,.27-7.38,56.45,56.45,0,0,1,1.63-8.86,31.4,31.4,0,0,1,3.46-8.25,16.5,16.5,0,0,1,5-5.24,15.48,15.48,0,0,1,4.48-2,8.52,8.52,0,0,0,1.77-.47,8.44,8.44,0,0,0-1.84.18,14.46,14.46,0,0,0-4.7,1.83,16.42,16.42,0,0,0-5.28,5.32,30.83,30.83,0,0,0-3.61,8.42,52.23,52.23,0,0,0-1.59,9,61.5,61.5,0,0,0-.11,7.45c.09,2.12.23,3.83.34,5A8.78,8.78,0,0,0,659.76,449.79Z" style="fill:#e0e0e0"></path><path d="M661.37,455.61a3.22,3.22,0,0,0,0-.85c-.07-.63-.17-1.43-.29-2.4-.25-2.09-.6-5.1-.92-8.84-.69-7.47-1-15.57-1.07-27-.07-10.77.06-23.33.78-31.56.14-1.88.31-3.56.48-5s.28-2.77.43-3.8.21-1.77.29-2.4a3.89,3.89,0,0,0,.05-.85,2.92,2.92,0,0,0-.2.82c-.11.63-.26,1.42-.43,2.38s-.37,2.31-.56,3.8-.41,3.16-.59,5A276.08,276.08,0,0,0,658,414.24c.09,11.47.73,21.85,1.56,29.33.39,3.74.82,6.76,1.16,8.83.18,1,.32,1.76.43,2.38A4.49,4.49,0,0,0,661.37,455.61Z" style="fill:#e0e0e0"></path><path d="M659.09,435.7a14.77,14.77,0,0,0-.31-2.5,68.31,68.31,0,0,0-1.56-6.71,90,90,0,0,0-3.37-9.65,82.14,82.14,0,0,0-5.51-11.24A62.73,62.73,0,0,0,634,388.08a30.65,30.65,0,0,0-3.17-2.32c-.48-.32-.91-.65-1.34-.9l-1.2-.63a18,18,0,0,0-2.27-1.11c-.1.18,3.22,1.65,7.64,5.37A66.21,66.21,0,0,1,647.68,406a92.53,92.53,0,0,1,5.53,11.13c1.51,3.51,2.62,6.77,3.5,9.53s1.42,5,1.79,6.61A15.89,15.89,0,0,0,659.09,435.7Z" style="fill:#e0e0e0"></path><polygon points="638.2 442.9 640.21 470.4 675.53 470.4 677.54 442.9 638.2 442.9" style="fill:#e0e0e0"></polygon><rect x="634.79" y="432.06" width="46.97" height="10.84" style="fill:#e0e0e0"></rect><polygon points="634.79 469.35 634.79 472.36 636.99 472.36 680.98 472.36 680.98 469.35 634.79 469.35" style="fill:#ebebeb"></polygon><polygon points="639.16 477.64 636.99 472.36 679.3 472.36 676.77 477.64 639.16 477.64" style="fill:#e0e0e0"></polygon><path d="M676.89,451.89a1.59,1.59,0,0,1-.17.25c-.14.19-.31.42-.53.7l-2.05,2.64-.1.12-.08-.13-5.06-7h.29l-5,7-.15.22-.18-.21-5.9-7h.34l-.33.41-5.28,6.62-.17.22-.16-.23c-1.8-2.54-3.47-4.9-5-7l.29,0c-2.46,2.79-4.54,5.17-6.14,7l-.11.12-.08-.14-1.92-3.23-.49-.86a1.26,1.26,0,0,1-.15-.3s.08.09.2.27l.55.83,2,3.17-.19,0,6-7.07.15-.18.14.19,5,7h-.34l5.27-6.63.32-.41.17-.21.18.21,5.88,7-.33,0,5-7,.15-.2.14.2,4.95,7.07H674l2.14-2.57.57-.66A1.77,1.77,0,0,1,676.89,451.89Z" style="fill:#f5f5f5"></path><path d="M678,442.72c0,.12-8.85.22-19.76.22s-19.78-.1-19.78-.22,8.85-.22,19.78-.22S678,442.6,678,442.72Z" style="fill:#f5f5f5"></path><path d="M679.82,472.65c0,.12-9.62.22-21.49.22s-21.48-.1-21.48-.22,9.61-.22,21.48-.22S679.82,472.53,679.82,472.65Z" style="fill:#f5f5f5"></path></g><g id="freepik--Floor--inject-70"><path d="M723,477.45c0,.15-156.28.26-349,.26S25,477.6,25,477.45s156.25-.26,349.06-.26S723,477.31,723,477.45Z" style="fill:#263238"></path></g><g id="freepik--Plant--inject-70"><path d="M123.55,444.69s-4.8-33-4.4-52.13,0-40.75,0-40.75h2.21s-1.5,38.06.13,61,5.91,31.87,5.91,31.87h-3.83" style="fill:#263238"></path><path d="M137.83,314.72a5.8,5.8,0,0,0-2-2.94c-1.4-.89-3.23-.52-4.8,0-6.67,2.36-12.59,14.81-15.29,21.35L124.58,363C140.58,348.18,143.35,328.72,137.83,314.72Z" style="fill:#455a64"></path><path d="M135.3,313a2.31,2.31,0,0,1-.13.39c-.12.29-.26.65-.43,1.09-.39.94-.94,2.31-1.59,4-1.31,3.39-3,8.13-4.45,13.47s-2.5,10.27-3.13,13.85c-.32,1.79-.56,3.24-.71,4.24-.07.47-.14.85-.19,1.16a1.17,1.17,0,0,1-.09.4,2.53,2.53,0,0,1,0-.41c0-.31.07-.69.12-1.17.11-1,.31-2.47.59-4.27a130.37,130.37,0,0,1,3-13.89,127.07,127.07,0,0,1,4.57-13.47c.68-1.69,1.27-3,1.69-4l.5-1.07A2.14,2.14,0,0,1,135.3,313Z" style="fill:#263238"></path><path d="M120.65,370.18A27,27,0,0,1,107,347.48c-.32-6.63,1.71-13.13,4-19.35a2.54,2.54,0,0,1,.94-1.41,2.38,2.38,0,0,1,2.26.36c6,3.43,9.7,10,11.64,16.65a33.54,33.54,0,0,1,1.37,13.7,22.8,22.8,0,0,1-6.57,12.75" style="fill:#455a64"></path><path d="M120.65,370.18a1.17,1.17,0,0,1,0-.4c0-.3,0-.68,0-1.15,0-1,0-2.43-.12-4.21a114.74,114.74,0,0,0-1.55-13.79c-.92-5.35-2-10.14-2.86-13.6-.4-1.69-.74-3.08-1-4.1-.11-.45-.19-.82-.26-1.11a2,2,0,0,1-.06-.4,1.72,1.72,0,0,1,.13.38c.09.29.2.65.33,1.1.27,1,.65,2.35,1.09,4.07.89,3.45,2,8.24,3,13.6a100,100,0,0,1,1.44,13.84c0,1.78,0,3.23,0,4.22,0,.47,0,.85,0,1.15A2.59,2.59,0,0,1,120.65,370.18Z" style="fill:#263238"></path><g style="opacity:0.30000000000000004"><path d="M120.65,370.18A27,27,0,0,1,107,347.48c-.32-6.63,1.71-13.13,4-19.35a2.54,2.54,0,0,1,.94-1.41,2.38,2.38,0,0,1,2.26.36c6,3.43,9.7,10,11.64,16.65a33.54,33.54,0,0,1,1.37,13.7,22.8,22.8,0,0,1-6.57,12.75"></path></g><path d="M130,420.61c8.17,1.79,14.9,7.56,22.79,10.36,5.22,1.86,11.12,2.51,15.28,6.16-1-2.52-3.37-4.2-5.67-5.64a101.25,101.25,0,0,0-20.66-9.86c-3.71-1.28-7.73-2.35-11.51-1.3" style="fill:#455a64"></path><path d="M118.2,427.89c-10.24-.17-21-8.88-31.21-9.4,10.66-3.44,25.93-.63,31.21,9.4" style="fill:#455a64"></path><path d="M122.2,403.33a33.33,33.33,0,0,1,16.36-1.11,99.89,99.89,0,0,1,16,4.34c-.52-3.55-3.4-6.22-6.1-8.59A42.44,42.44,0,0,0,142,393a14.33,14.33,0,0,0-7.69-2.17,12.16,12.16,0,0,0-8.49,4.28,14.05,14.05,0,0,0-3.64,8.18" style="fill:#455a64"></path><path d="M101.19,392c-6.45-5.5-16.21-5-24.68-4.78a201.72,201.72,0,0,1,38.27,23.85C115.12,405.11,109.33,399,101.19,392Z" style="fill:#455a64"></path><g style="opacity:0.30000000000000004"><path d="M101.19,392c-6.45-5.5-16.21-5-24.68-4.78a201.72,201.72,0,0,1,38.27,23.85C115.12,405.11,109.33,399,101.19,392Z"></path></g><path d="M125.1,384.43a71.15,71.15,0,0,1,9.91-5.76c3.39-1.54,6.55-4,9.83-5.77,4.25-2.3,7.93-5.5,11.83-8.35s8.18-5.42,13-6.18a25.61,25.61,0,0,0-11.79.68,76.68,76.68,0,0,0-11.09,4.32c-5,2.26-10.15,4.59-14.25,8.26s-7.83,7.31-7.39,12.8" style="fill:#455a64"></path><path d="M152.62,427.89a1.3,1.3,0,0,1-.32-.14l-.9-.46c-.77-.41-1.87-1-3.27-1.72q-1-.56-2.28-1.14c-.82-.4-1.72-.81-2.66-1.21a39,39,0,0,0-6.3-2.2,13.62,13.62,0,0,0-6.57-.17,19.82,19.82,0,0,0-2.78.83,13.89,13.89,0,0,0-2.25,1.16,14.08,14.08,0,0,0-2.82,2.33c-.6.63-.88,1-.91,1a1.37,1.37,0,0,1,.18-.3c.13-.19.34-.46.62-.8a13.42,13.42,0,0,1,2.79-2.45,15.5,15.5,0,0,1,2.27-1.22,18.63,18.63,0,0,1,2.82-.87,13.63,13.63,0,0,1,6.73.13,37.4,37.4,0,0,1,6.35,2.25c1,.42,1.84.83,2.66,1.25s1.59.8,2.27,1.18c1.38.73,2.47,1.37,3.22,1.82l.86.53C152.53,427.81,152.63,427.88,152.62,427.89Z" style="fill:#263238"></path><path d="M110.56,422.82a2,2,0,0,1,.64.18,15.29,15.29,0,0,1,1.67.73,20.23,20.23,0,0,1,4.89,3.47,20,20,0,0,1,3.66,4.75,13.38,13.38,0,0,1,.79,1.63,2.74,2.74,0,0,1,.22.64c-.06,0-.44-.84-1.23-2.14a22.55,22.55,0,0,0-8.45-8.12C111.42,423.22,110.54,422.88,110.56,422.82Z" style="fill:#263238"></path><path d="M87.91,391.51l.44.13,1.23.44,1.93.71c.76.29,1.58.7,2.51,1.11a59,59,0,0,1,13.32,8.49,64.63,64.63,0,0,1,6.22,6.12A67.84,67.84,0,0,1,118,414.1c1.17,1.65,2.06,3,2.66,4l.7,1.1a2.14,2.14,0,0,1,.23.39,1.82,1.82,0,0,1-.29-.35c-.18-.24-.44-.6-.76-1.06-.64-.93-1.56-2.29-2.75-3.92s-2.69-3.52-4.45-5.52a69,69,0,0,0-6.2-6.06,62.6,62.6,0,0,0-13.2-8.54c-.92-.42-1.73-.85-2.48-1.15l-1.91-.77-1.2-.5A1.9,1.9,0,0,1,87.91,391.51Z" style="fill:#263238"></path><path d="M137.56,397.58a4.32,4.32,0,0,1-.82-.11l-.94-.17c-.36-.07-.79-.07-1.26-.12a12.8,12.8,0,0,0-7,1.39,12.56,12.56,0,0,0-3.2,2.37,13.79,13.79,0,0,0-2.06,2.55,20.43,20.43,0,0,0-1.41,2.68,3.2,3.2,0,0,1,.21-.8,11.85,11.85,0,0,1,1-2,13.49,13.49,0,0,1,2-2.65,12.3,12.3,0,0,1,3.27-2.46,12.53,12.53,0,0,1,7.23-1.32c.47.07.9.09,1.27.18l.93.23A3.19,3.19,0,0,1,137.56,397.58Z" style="fill:#263238"></path><path d="M147.85,365.66l-.39.24-1.14.62c-1,.53-2.42,1.32-4.16,2.34s-3.77,2.31-5.93,3.86a49.46,49.46,0,0,0-6.62,5.55,16.52,16.52,0,0,0-2.71,3.51c-.67,1.28-1.31,2.53-1.9,3.72a67.29,67.29,0,0,0-2.85,6.48,40.64,40.64,0,0,0-1.38,4.56c-.26,1.09-.36,1.71-.39,1.71a1.59,1.59,0,0,1,0-.46c0-.29.1-.73.21-1.28a34.18,34.18,0,0,1,1.28-4.62,60.56,60.56,0,0,1,2.79-6.53c.58-1.21,1.21-2.46,1.88-3.75a17.11,17.11,0,0,1,2.76-3.59,47.79,47.79,0,0,1,6.69-5.57c2.19-1.54,4.25-2.8,6-3.81s3.21-1.75,4.22-2.25l1.18-.56A2.3,2.3,0,0,1,147.85,365.66Z" style="fill:#263238"></path><path d="M119.14,396.65a4.78,4.78,0,0,1-.2-.86l-.45-2.36a60.73,60.73,0,0,0-4.86-15.05c-.4-.87-.73-1.61-1-2.19a4.38,4.38,0,0,1-.33-.83,3.49,3.49,0,0,1,.46.76c.27.5.65,1.23,1.1,2.15a53.33,53.33,0,0,1,3,7.36,52.28,52.28,0,0,1,1.84,7.75c.16,1,.28,1.82.34,2.39A3.88,3.88,0,0,1,119.14,396.65Z" style="fill:#263238"></path><path d="M118.4,373.36a27.91,27.91,0,0,0-3.33-11.05,36.5,36.5,0,0,0-24.73-18.44q11.44,17.06,22.9,34.12l3,6.09C118.21,380.77,118.66,377.23,118.4,373.36Z" style="fill:#455a64"></path><rect x="98" y="440.61" width="53.24" height="9.44" style="fill:#FF725E"></rect><polygon points="101.98 448.18 106.51 477.45 141.86 477.45 147.27 448.18 101.98 448.18" style="fill:#FF725E"></polygon><path d="M151.21,450.06c0,.1-12,.19-26.82.19s-26.82-.09-26.82-.19,12-.19,26.82-.19S151.21,450,151.21,450.06Z" style="fill:#263238"></path></g><g id="freepik--Picture--inject-70"><rect x="356.6" y="31.81" width="100.04" height="129.21" style="fill:#455a64"></rect><path d="M456.64,31.81a2.35,2.35,0,0,1-.27.34l-.86,1-3.38,3.7,0,0H452c-8.7.09-25.79.15-45.4.15s-36.72-.06-45.41-.15h-.07l0,0-3.37-3.7-.86-1a3.32,3.32,0,0,1-.28-.34,1.9,1.9,0,0,1,.33.29l.91.92,3.48,3.61-.1,0c8.69-.09,25.78-.15,45.41-.15s36.7.06,45.4.15l-.1,0L455.4,33l.92-.92A1.7,1.7,0,0,1,456.64,31.81Z" style="fill:#263238"></path><path d="M356.6,161a3.32,3.32,0,0,1,.28-.34l.86-1,3.37-3.7,0-.05h.07c8.69-.09,25.78-.15,45.4-.15s36.71.06,45.41.15h.06l0,.05,3.38,3.7.86,1a2.35,2.35,0,0,1,.27.34,1.7,1.7,0,0,1-.32-.29l-.92-.92-3.47-3.61.1,0c-8.7.09-25.79.15-45.41.15s-36.71-.06-45.4-.15l.1,0-3.48,3.61-.91.92A1.9,1.9,0,0,1,356.6,161Z" style="fill:#263238"></path><rect x="361.22" y="36.73" width="90.81" height="119.36" style="fill:#fff"></rect><path d="M375.43,121.19c2.7-2.58,6.69-3.31,10.42-3.21s7.42.88,11.15.83c6-.07,11.91-2.28,17.79-1.26,1.88.32,3.78,1,5.65.58,1.63-.35,3-1.46,4.6-1.94,4.14-1.23,8.8,2,12.78.31v26.65H375.43Z" style="fill:#FF725E"></path><path d="M376.68,122.26c-.16,0-.29-15.79-.29-35.25s.13-35.25.29-35.25S377,67.54,377,87,376.84,122.26,376.68,122.26Z" style="fill:#263238"></path><path d="M379.52,122.26c-.16,0-.29-15.79-.29-35.25s.13-35.25.29-35.25.29,15.78.29,35.25S379.68,122.26,379.52,122.26Z" style="fill:#263238"></path><path d="M382.37,122.26c-.17,0-.29-15.79-.29-35.25s.12-35.25.29-35.25.28,15.78.28,35.25S382.53,122.26,382.37,122.26Z" style="fill:#263238"></path><path d="M385.21,122.26c-.16,0-.29-15.79-.29-35.25s.13-35.25.29-35.25.29,15.78.29,35.25S385.37,122.26,385.21,122.26Z" style="fill:#263238"></path><path d="M388.05,122.26c-.16,0-.29-15.79-.29-35.25s.13-35.25.29-35.25.29,15.78.29,35.25S388.21,122.26,388.05,122.26Z" style="fill:#263238"></path><path d="M390.89,122.26c-.16,0-.29-15.79-.29-35.25s.13-35.25.29-35.25.29,15.78.29,35.25S391.05,122.26,390.89,122.26Z" style="fill:#263238"></path><path d="M393.73,122.26c-.16,0-.29-15.79-.29-35.25s.13-35.25.29-35.25S394,67.54,394,87,393.89,122.26,393.73,122.26Z" style="fill:#263238"></path><path d="M396.57,122.26c-.16,0-.29-15.79-.29-35.25s.13-35.25.29-35.25.29,15.78.29,35.25S396.73,122.26,396.57,122.26Z" style="fill:#263238"></path><path d="M399.41,122.26c-.16,0-.29-15.79-.29-35.25s.13-35.25.29-35.25.29,15.78.29,35.25S399.57,122.26,399.41,122.26Z" style="fill:#263238"></path><path d="M402.25,122.26c-.16,0-.29-15.79-.29-35.25s.13-35.25.29-35.25.29,15.78.29,35.25S402.41,122.26,402.25,122.26Z" style="fill:#263238"></path><path d="M405.09,122.26c-.16,0-.29-15.79-.29-35.25s.13-35.25.29-35.25.29,15.78.29,35.25S405.25,122.26,405.09,122.26Z" style="fill:#263238"></path><path d="M407.93,122.26c-.16,0-.29-15.79-.29-35.25s.13-35.25.29-35.25.29,15.78.29,35.25S408.09,122.26,407.93,122.26Z" style="fill:#263238"></path><path d="M410.77,122.26c-.16,0-.29-15.79-.29-35.25s.13-35.25.29-35.25.29,15.78.29,35.25S410.93,122.26,410.77,122.26Z" style="fill:#263238"></path><path d="M413.61,122.26c-.16,0-.29-15.79-.29-35.25s.13-35.25.29-35.25.29,15.78.29,35.25S413.77,122.26,413.61,122.26Z" style="fill:#263238"></path><path d="M416.45,122.26c-.16,0-.29-15.79-.29-35.25s.13-35.25.29-35.25.29,15.78.29,35.25S416.61,122.26,416.45,122.26Z" style="fill:#263238"></path><path d="M419.29,122.26c-.16,0-.29-15.79-.29-35.25s.13-35.25.29-35.25.29,15.78.29,35.25S419.45,122.26,419.29,122.26Z" style="fill:#263238"></path><path d="M422.13,122.26c-.16,0-.29-15.79-.29-35.25s.13-35.25.29-35.25.29,15.78.29,35.25S422.29,122.26,422.13,122.26Z" style="fill:#263238"></path><path d="M425,122.26c-.16,0-.29-15.79-.29-35.25s.13-35.25.29-35.25.28,15.78.28,35.25S425.14,122.26,425,122.26Z" style="fill:#263238"></path><path d="M427.82,122.26c-.16,0-.29-15.79-.29-35.25s.13-35.25.29-35.25.29,15.78.29,35.25S428,122.26,427.82,122.26Z" style="fill:#263238"></path><path d="M430.66,122.26c-.16,0-.29-15.79-.29-35.25s.13-35.25.29-35.25S431,67.54,431,87,430.82,122.26,430.66,122.26Z" style="fill:#263238"></path><path d="M433.5,122.26c-.16,0-.29-15.79-.29-35.25s.13-35.25.29-35.25.29,15.78.29,35.25S433.66,122.26,433.5,122.26Z" style="fill:#263238"></path><path d="M436.34,122.26c-.16,0-.29-15.79-.29-35.25s.13-35.25.29-35.25.29,15.78.29,35.25S436.5,122.26,436.34,122.26Z" style="fill:#263238"></path></g><g id="freepik--character-2--inject-70"><path d="M572.07,316.22l-66.74-14.56-11.51-18.13L488,284.85l-2.26,45.62,49.75,17.21-25.64,67,16.28,11s52.77-74.46,56.71-82.77S585.35,319.2,572.07,316.22Z" style="fill:#263238"></path><path d="M487.18,179.86c7.76-16.56,7.51-34.45,15.28-51l.92-2.54c-2-6.2-12.11-7-17.32-5.24S477.72,127,476,131.36s-2.33,9.15-3.78,13.63c-3.5,10.81-12,20.26-11.11,32l16.49,4.1,4.24-8.4-.57,7.9Z" style="fill:#263238"></path><path d="M491.71,129.43a21.61,21.61,0,0,1,3.62-5.68,7.48,7.48,0,0,1,6-2.48,3.09,3.09,0,0,1,2.57,1.62,1.68,1.68,0,0,1-1.3,2.34l-.21.21q-3.32,3.36-6.75,6.59a6.15,6.15,0,0,1-1.92,1.37,2.14,2.14,0,0,1-2.23-.32C490.59,132.17,491.12,130.6,491.71,129.43Z" style="fill:#455a64"></path><path d="M497.48,125.78c8-5.74,17.15-7.82,26.67-5.45,5.38,1.34,7.29,3,10.87,5.11a17.51,17.51,0,0,1,7.93,8.94c1.69,4.6,2.83,9.55,2.09,14.4a82.14,82.14,0,0,1-3.19,14.75A27.51,27.51,0,0,1,533.66,176l-12.93-1.15c-6.88-1.58-13.86-3.2-20.09-6.53s-11.73-8.63-13.74-15.4C484.12,143.51,489.51,131.51,497.48,125.78Z" style="fill:#263238"></path><path d="M508.49,128.63l18.21-2.16,4.17,1.65c9.67,2.61,13.5,15.07,11.47,22.93-2.25,8.73-5.34,19.29-8.44,25.34-6.23,12.17-17.53,10.31-17.53,10.31l-1.29,5.41,1.45,10.36-16.33,7.84-22.56-7.68L489,186,503,131.89A4.73,4.73,0,0,1,508.49,128.63Z" style="fill:#ffbf9d"></path><path d="M515.34,168.21a2.81,2.81,0,0,1,1.4-1.44,2.9,2.9,0,0,1,3.46.71,3.87,3.87,0,0,1,.49,3.91h0a3.5,3.5,0,0,1-2.83.77,3.84,3.84,0,0,1-.46-.11,3.17,3.17,0,0,1-1.85-1.37A2.85,2.85,0,0,1,515.34,168.21Z" style="fill:#ff9a6c"></path><path d="M535,161.3a1.74,1.74,0,0,1-2.13,1.14,1.66,1.66,0,0,1-1.21-2,1.73,1.73,0,0,1,2.13-1.14A1.66,1.66,0,0,1,535,161.3Z" style="fill:#263238"></path><path d="M538.23,154.61c-.27.15-1.22-1.18-3-1.75s-3.36-.11-3.48-.39c-.07-.13.27-.45,1-.68a4.85,4.85,0,0,1,2.87.05,4.62,4.62,0,0,1,2.3,1.67C538.3,154.1,538.36,154.55,538.23,154.61Z" style="fill:#263238"></path><path d="M522.92,165.63a12.19,12.19,0,0,1,3.05.42c.46.1.92.15,1.1-.13a2.45,2.45,0,0,0,.13-1.44c-.06-1.24-.13-2.53-.21-3.88-.26-5.51-.28-10-.06-10s.61,4.45.87,10c.05,1.35.1,2.64.15,3.88a2.78,2.78,0,0,1-.35,1.85,1.17,1.17,0,0,1-1,.42,3.39,3.39,0,0,1-.8-.14A12.37,12.37,0,0,1,522.92,165.63Z" style="fill:#263238"></path><path d="M516.4,186.69a34.32,34.32,0,0,1-15.69-10.19s1.67,10.38,14.91,13.37Z" style="fill:#ff9a6c"></path><path d="M517.31,165.15c.29.08-.33,2,.87,3.9s3.32,2.36,3.24,2.64c0,.13-.58.22-1.45,0a5,5,0,0,1-2.74-2.09,4.39,4.39,0,0,1-.61-3.23C516.81,165.51,517.18,165.1,517.31,165.15Z" style="fill:#263238"></path><path d="M539.3,148.16c-.44.33-1.7-.4-3.33-.79s-3.08-.39-3.3-.89c-.09-.25.22-.61.91-.87a5.09,5.09,0,0,1,2.86-.07,5,5,0,0,1,2.48,1.43C539.4,147.52,539.49,148,539.3,148.16Z" style="fill:#263238"></path><path d="M515.76,155.12a1.72,1.72,0,0,0,1.13,2.13,1.65,1.65,0,0,0,2.14-1,1.72,1.72,0,0,0-1.12-2.13A1.65,1.65,0,0,0,515.76,155.12Z" style="fill:#263238"></path><path d="M514.09,147.43c.15.28,1.68-.29,3.47.22s2.84,1.79,3.1,1.62,0-.52-.43-1.1a4.8,4.8,0,0,0-2.41-1.57,4.54,4.54,0,0,0-2.83.1C514.32,147,514,147.31,514.09,147.43Z" style="fill:#263238"></path><path d="M516.71,142c.24.51,1.74.48,3.41.94s3,1.15,3.43.81c.2-.16.1-.63-.41-1.2a5.39,5.39,0,0,0-2.57-1.45,5.31,5.31,0,0,0-2.94,0C516.92,141.36,516.61,141.72,516.71,142Z" style="fill:#263238"></path><path d="M499.36,154.37c.31-1-.06-3.57-1-4-2.39-1.21-7-2.49-9.13,3.89-2.91,8.73,6.45,9.86,6.55,9.61S498.29,157.67,499.36,154.37Z" style="fill:#ffbf9d"></path><path d="M494.48,159.85s-.19.05-.49.09a1.63,1.63,0,0,1-1.14-.36c-.81-.65-1.1-2.37-.61-4a5.23,5.23,0,0,1,1.15-2,1.86,1.86,0,0,1,1.53-.79.83.83,0,0,1,.76.72c0,.28-.08.44,0,.47s.24-.09.29-.47a1,1,0,0,0-.16-.66,1.26,1.26,0,0,0-.77-.51,2.26,2.26,0,0,0-2,.83,5.3,5.3,0,0,0-1.34,2.26c-.53,1.77-.18,3.72,1,4.51a1.73,1.73,0,0,0,1.47.23C494.39,160.05,494.5,159.87,494.48,159.85Z" style="fill:#ff9a6c"></path><path d="M498,150.27l1.63,2.94c12.23-6.72,37.48-25,36.05-23.88a29.38,29.38,0,0,0-13.51-5.22c-7.57-.7-22.27-.74-24.34,7.86S498,150.27,498,150.27Z" style="fill:#263238"></path><path d="M488.35,156.69a3.3,3.3,0,0,1-.51-.92,27,27,0,0,1-1.08-2.67,14.22,14.22,0,0,1-.79-4.22,30.73,30.73,0,0,1,.28-5.23,22.07,22.07,0,0,1,3.29-8.88,21.06,21.06,0,0,1,1.66-2.35,3.32,3.32,0,0,1,.73-.77c.08.06-.85,1.24-2,3.33a24.1,24.1,0,0,0-3.06,8.75c-.49,3.63-.45,7,.32,9.25S488.45,156.66,488.35,156.69Z" style="fill:#455a64"></path><path d="M534.92,174.6a6.42,6.42,0,0,1-.77,1.89,22.44,22.44,0,0,1-2.76,4.1,18.29,18.29,0,0,1-3.66,3.32,5.74,5.74,0,0,1-1.82.94,16.58,16.58,0,0,1,1.6-1.24,24,24,0,0,0,3.48-3.36A63,63,0,0,0,534.92,174.6Z" style="fill:#ff9a6c"></path><path d="M542,416.83l-13.25,24s21.42,22.08,19.43,26.77L497.9,442.51l19-38.28Z" style="fill:#263238"></path><path d="M514.24,431a2.18,2.18,0,0,0-2.54,1.51,2.22,2.22,0,0,0,1.63,2.5,2.07,2.07,0,1,0,.69-4" style="fill:#e0e0e0"></path><path d="M497.9,442.51l2.08-3.78L547.4,464.2s1.78,2,.77,3.4Z" style="fill:#455a64"></path><path d="M529.68,441c-.12.23-1.4-.28-3-.14s-2.72.8-2.9.6.87-1.37,2.79-1.51S529.84,440.81,529.68,441Z" style="fill:#fff"></path><path d="M533.92,445.68c-.06.26-1.32.12-2.65.68s-2.09,1.49-2.33,1.35.26-1.52,1.93-2.19S534,445.46,533.92,445.68Z" style="fill:#fff"></path><path d="M533.91,453.14c-.25-.06,0-1.39,1.26-2.35s2.67-.89,2.68-.64-1,.57-2.07,1.37S534.16,453.24,533.91,453.14Z" style="fill:#fff"></path><path d="M532.06,435.17c-.21.16-1.18-.72-2.61-1.32s-2.72-.73-2.75-1,1.43-.57,3.11.17S532.27,435.05,532.06,435.17Z" style="fill:#fff"></path><path d="M547.89,417.68l-13.25,24s21.42,22.09,19.42,26.77l-50.27-25.09,19-38.28Z" style="fill:#263238"></path><path d="M520.13,431.86a2.06,2.06,0,1,0-.91,4,2.07,2.07,0,1,0,.69-4" style="fill:#e0e0e0"></path><path d="M503.79,443.36l2.08-3.78,47.42,25.47s1.78,2,.77,3.4Z" style="fill:#455a64"></path><path d="M535.57,441.84c-.12.23-1.4-.28-3-.13s-2.71.79-2.89.59.86-1.36,2.78-1.5S535.73,441.66,535.57,441.84Z" style="fill:#fff"></path><path d="M539.81,446.53c-.06.26-1.32.12-2.65.69s-2.09,1.48-2.33,1.34.27-1.52,1.93-2.19S539.91,446.31,539.81,446.53Z" style="fill:#fff"></path><path d="M539.8,454c-.25-.06,0-1.39,1.26-2.35s2.68-.88,2.68-.64-1,.57-2.07,1.37S540.06,454.09,539.8,454Z" style="fill:#fff"></path><path d="M538,436c-.21.16-1.18-.72-2.61-1.32s-2.72-.73-2.75-1,1.43-.58,3.11.16S538.16,435.9,538,436Z" style="fill:#fff"></path><path d="M440.32,282s-14.35,50,1.49,60.37c20.71,13.49,108.05,10.38,106.46,11.92-8.1,7.82-23.17,46.69-32.56,69.85l20.63,13.82s42.75-62.46,50.65-78.75c5.31-11,5.5-27-7.53-32.74-8.2-3.62-77.72-21.94-77.72-21.94l-7.92-21Z" style="fill:#263238"></path><path d="M440.32,282h.89l2.68.07,10.44.26,39.5,1.08h.1l0,.1c2.38,6.29,5.06,13.36,7.94,20.94l-.12-.1c12.24,3.22,25.82,6.84,40.51,10.87,7.34,2,15,4.13,22.81,6.41,3.92,1.16,7.91,2.31,11.91,3.67a18.83,18.83,0,0,1,10.31,7.44l.86,1.41c.25.49.46,1,.69,1.5.11.26.23.51.33.76l.25.8c.15.53.36,1.05.47,1.59a27.42,27.42,0,0,1,.69,6.65,34.48,34.48,0,0,1-3.1,13.16c-.45,1.07-1,2.05-1.56,3.08s-1.09,2-1.67,3c-1.13,2-2.32,4-3.53,6q-3.62,6-7.47,12c-10.23,16-21.19,32.46-32.55,49.23l-4.19,6.15-.14.22-.22-.15-20.62-13.82-.18-.11.08-.2c6.57-16.21,12.79-32.05,19.58-46.94,1.71-3.72,3.44-7.39,5.3-10.94a74,74,0,0,1,6.15-10.22l1-1.11.49-.56.12-.14s-.11.09,0,.23,0,0,0,0l-.3-.07c-.93-.13-1.91-.15-2.87-.2-1.93-.07-3.86-.11-5.77-.14l-11.33-.2c-14.92-.28-29.05-.79-42.19-1.86-6.58-.54-12.9-1.21-18.94-2.12A112.14,112.14,0,0,1,449.59,346a35,35,0,0,1-7.48-3.28,13.42,13.42,0,0,1-5-5.84,27.49,27.49,0,0,1-2.1-7,47.93,47.93,0,0,1-.69-6.81,113.72,113.72,0,0,1,1.83-22.45c1-6.09,2.14-10.75,2.91-13.89.39-1.57.71-2.76.93-3.56s.36-1.2.36-1.2c-.08.32-.43,1.73-1.2,4.78s-1.8,7.81-2.81,13.9a114.92,114.92,0,0,0-1.75,22.41,48.92,48.92,0,0,0,.7,6.77,27.31,27.31,0,0,0,2.1,6.91,13.08,13.08,0,0,0,4.92,5.7,34.91,34.91,0,0,0,7.42,3.23,111,111,0,0,0,17.07,3.72c6,.9,12.34,1.56,18.91,2.09,13.13,1,27.25,1.54,42.16,1.81l11.34.19c1.91,0,3.84.07,5.78.14,1,0,1.93.06,2.93.2a1.87,1.87,0,0,1,.41.1.46.46,0,0,1,.18.14.3.3,0,0,1-.05.38l-.12.14-.48.54-1,1.09a74.46,74.46,0,0,0-6.1,10.14c-1.84,3.55-3.57,7.21-5.27,10.92-6.78,14.88-13,30.72-19.56,46.93l-.1-.31,20.63,13.82-.36.07,4.19-6.15c11.35-16.77,22.32-33.18,32.55-49.21,2.56-4,5.06-8,7.47-12,1.21-2,2.4-4,3.53-6,.57-1,1.15-2,1.66-3s1.11-2,1.55-3a34,34,0,0,0,3.06-13,27.24,27.24,0,0,0-.66-6.52c-.12-.54-.32-1-.47-1.56l-.24-.78c-.1-.25-.22-.49-.32-.74-.23-.49-.42-1-.67-1.46l-.84-1.38a18.34,18.34,0,0,0-10.06-7.26c-4-1.35-8-2.51-11.89-3.67-7.84-2.29-15.46-4.41-22.8-6.44-14.68-4.05-28.25-7.69-40.48-10.94l-.09,0,0-.09c-2.85-7.59-5.51-14.66-7.89-21l.14.1-39.41-1.23-10.47-.35-2.7-.09C440.63,282,440.32,282,440.32,282Z" style="fill:#455a64"></path><path d="M533.08,204.23s-4.48-3.81-4.29-7.26.42-3.93-.43-5.33-2.9-3.87-1.75-4.11,3-.91,4.54,1.27l1.27,1.57-.36-9.38s-3.52-.54-3.39-1.82a3.21,3.21,0,0,1,2.9-2.78c1.7-.18,5,2.48,5,2.48l.79,4.64s6.25-.93,7,3.12c0,0,4,.4,3.78,3,0,0,3.28.66,2.8,4.6a35.31,35.31,0,0,1-3.39,11.26c-1.45,2.6-.73,2.84-.73,2.84l-10.29,1.21-3.78-3.81Z" style="fill:#ffbf9d"></path><path d="M544.74,186.67a6.76,6.76,0,0,0-3.46,1,11.63,11.63,0,0,0-2.87,2.69L537,192.2a3.86,3.86,0,0,1-2.2,1.51,2.22,2.22,0,0,1-1.43-.18,1.92,1.92,0,0,1-.92-1.07,4.9,4.9,0,0,1-.09-2.48,8.52,8.52,0,0,1,1.5-3.8,5.52,5.52,0,0,1,2.14-1.74,2.14,2.14,0,0,1,1-.25s-.34.13-.89.43a5.69,5.69,0,0,0-1.93,1.78,8.38,8.38,0,0,0-1.32,3.66,4.51,4.51,0,0,0,.08,2.22,1.49,1.49,0,0,0,1.78.92,3.44,3.44,0,0,0,1.91-1.33c.51-.62,1-1.27,1.48-1.86a11.24,11.24,0,0,1,3.06-2.7,5.94,5.94,0,0,1,2.64-.77A2.08,2.08,0,0,1,544.74,186.67Z" style="fill:#ff9a6c"></path><path d="M548.15,189.57a9,9,0,0,0-3.48,2.49c-.87,1-1.74,2.38-2.81,3.81l-1.64,2.28a13.37,13.37,0,0,1-2,2.34,10.37,10.37,0,0,1-1.24,1,2.4,2.4,0,0,1-1.53.49,2.46,2.46,0,0,1-1.48-.54,1.93,1.93,0,0,1-.7-1.34,5.64,5.64,0,0,1,.32-2.6,14.5,14.5,0,0,1,.85-2.08,15,15,0,0,1,1.77-2.7,4,4,0,0,1,.81-.86,6.87,6.87,0,0,1-.65,1,17.82,17.82,0,0,0-1.6,2.74,14.69,14.69,0,0,0-.76,2,5.2,5.2,0,0,0-.27,2.4,1.52,1.52,0,0,0,.54,1,2,2,0,0,0,1.18.41,1.85,1.85,0,0,0,1.23-.41,10.39,10.39,0,0,0,1.18-.92,13.09,13.09,0,0,0,1.91-2.25c.56-.79,1.13-1.55,1.66-2.27,1.09-1.42,2-2.76,2.93-3.77a8,8,0,0,1,2.61-1.93A3.1,3.1,0,0,1,548.15,189.57Z" style="fill:#ff9a6c"></path><path d="M548.88,194.42a6.9,6.9,0,0,1-1,2,23.66,23.66,0,0,1-3.35,4.16A5.57,5.57,0,0,1,542,202.2a2.73,2.73,0,0,1-2.43-.55,2.7,2.7,0,0,1-.94-1.37c-.1-.39-.07-.61,0-.61a3.57,3.57,0,0,0,1.2,1.69,2.43,2.43,0,0,0,2.09.38,5.53,5.53,0,0,0,2.27-1.56A56.16,56.16,0,0,0,548.88,194.42Z" style="fill:#ff9a6c"></path><path d="M535.07,259.69c.25,0,7.9-6.44,8.24-14.26s3.52-38.05,3.52-38.05l-14.17-1.63s-7.22,34.7-9.11,37.62-14.94,14.52-14.94,14.52Z" style="fill:#FF725E"></path><path d="M491.29,183.51s22.53,14,24,7.65h0a115.08,115.08,0,0,1,7.76,20.55c3.38,13.28,3.2,27.22.53,33.07-2.84,6.24-12.09,14.14-12.09,14.14l-15.75,26.93-54.69-3.18s-2.28-2.9-1.37-5.74c3.5-10.88,14-37.45,19.75-51.56,8.55-21,11.11-31.51,22.71-39A21.62,21.62,0,0,1,491.29,183.51Z" style="fill:#FF725E"></path><path d="M523.38,213a1.6,1.6,0,0,1,.14.44c.08.36.18.79.3,1.3.25,1.13.58,2.78.92,4.83A85.22,85.22,0,0,1,526,235.68a32.66,32.66,0,0,1-.5,4.62,15.61,15.61,0,0,1-1.44,4.11,22.74,22.74,0,0,1-4.24,6,26,26,0,0,1-3.81,3.12c-.48.33-.86.57-1.12.72s-.41.23-.42.21.51-.39,1.43-1.09a30.41,30.41,0,0,0,3.65-3.22,23,23,0,0,0,4.08-5.9,15.53,15.53,0,0,0,1.37-4,31.55,31.55,0,0,0,.48-4.55,94.94,94.94,0,0,0-1.07-16.08c-.29-2-.56-3.7-.74-4.84q-.14-.78-.21-1.32A1.24,1.24,0,0,1,523.38,213Z" style="fill:#263238"></path><path d="M560.1,260l10-4.9s6.25.49,8.14,1.61,7,4.28,7,4.28,6.77-1.14,7.58.31c1.36,2.46-3.86,4-3.86,4l3.3,2.55s-3.12,2.07-5.84.8-2.85-2.16-2.85-2.16l-1.74.41,5.19,6.43a5.78,5.78,0,0,1-4.69.07c-2.37-1.12-4.92-4.85-4.92-4.85s-10.18,3.34-13.72,3.82a63,63,0,0,1-10.29-.13l3-12.48Z" style="fill:#ffbf9d"></path><path d="M589.28,264.83a86.33,86.33,0,0,1-9,3.05,85.54,85.54,0,0,1-9.13,2.56,87.07,87.07,0,0,1,9-3.05A85.77,85.77,0,0,1,589.28,264.83Z" style="fill:#ff9a6c"></path><path d="M574.71,261.69a27.65,27.65,0,0,1,5.39-.68,29,29,0,0,1,5.43-.16,28.6,28.6,0,0,1-5.39.68A29,29,0,0,1,574.71,261.69Z" style="fill:#ff9a6c"></path><path d="M572.58,256.68a18.27,18.27,0,0,1,3.83,2.05,18,18,0,0,1,3.56,2.48,35.93,35.93,0,0,1-7.39-4.53Z" style="fill:#ff9a6c"></path><path d="M474.42,222c0,1.34,13.23,55.77,25.27,58.78s57.11-7.22,57.11-7.22V258.44L514,254.25s-1.24-9.44-1.54-13.18c-.22-2.75-4.94-47.92-15.3-53.94s-18.19-.61-21.49,7.29C470.8,206.14,474.42,222,474.42,222Z" style="fill:#FF725E"></path><path d="M474.42,222a5,5,0,0,1-.15-.6c-.09-.4-.21-1-.35-1.79a65.8,65.8,0,0,1-.79-7,53.31,53.31,0,0,1,.49-11.21,34.81,34.81,0,0,1,1.87-6.81,18.82,18.82,0,0,1,4.4-6.6,14.45,14.45,0,0,1,3.58-2.42,12.13,12.13,0,0,1,4.38-1.1,16.83,16.83,0,0,1,9.19,2.42,10.48,10.48,0,0,1,3.59,3.6,30.13,30.13,0,0,1,2.45,4.64,76.62,76.62,0,0,1,3.49,10.38,209.33,209.33,0,0,1,4.62,23.23c.59,4.09,1.15,8.26,1.56,12.55s1,8.58,1.52,13L514,254l28.16,2.75,14.62,1.43.24,0v.23q0,7.67,0,15.07v.21l-.2,0c-8.57,1.9-16.92,3.53-25,4.88a203.53,203.53,0,0,1-23.24,2.8,53.25,53.25,0,0,1-5.51,0,21.78,21.78,0,0,1-2.68-.32,6.39,6.39,0,0,1-2.54-.93,15,15,0,0,1-3.71-3.65,37.5,37.5,0,0,1-2.73-4.19,114.37,114.37,0,0,1-7.31-16.55c-3.74-10.35-6.07-18.85-7.63-24.71-.76-2.93-1.31-5.2-1.66-6.75-.17-.77-.29-1.36-.37-1.76a4,4,0,0,1-.07-.61s.15.81.53,2.35.95,3.81,1.75,6.73c1.61,5.83,4,14.32,7.77,24.64a114.55,114.55,0,0,0,7.33,16.46,39.84,39.84,0,0,0,2.71,4.15,15,15,0,0,0,3.61,3.53,5.93,5.93,0,0,0,2.4.87,20.54,20.54,0,0,0,2.63.3,49.69,49.69,0,0,0,5.46,0,203.37,203.37,0,0,0,23.18-2.83c8.05-1.36,16.39-3,25-4.9l-.2.25V258.44l.23.26-14.62-1.43L514,254.51l-.2,0,0-.2q-.76-6.61-1.51-13c-.41-4.26-1-8.44-1.55-12.52a210.94,210.94,0,0,0-4.56-23.18,77.71,77.71,0,0,0-3.45-10.33,29.24,29.24,0,0,0-2.4-4.58,10.26,10.26,0,0,0-3.44-3.49,16.45,16.45,0,0,0-9-2.39,11.76,11.76,0,0,0-4.26,1.05,14,14,0,0,0-3.49,2.34,18.52,18.52,0,0,0-4.35,6.47,34.82,34.82,0,0,0-1.89,6.74,53.47,53.47,0,0,0-.57,11.16c.16,3.06.47,5.41.71,7,.12.78.22,1.37.29,1.79S474.42,222,474.42,222Z" style="fill:#263238"></path><path d="M526.55,477.68h-128a5.63,5.63,0,0,1-4.49-2.3,6.91,6.91,0,0,1-1.1-6l31.33-111.7,1.92.54-31.32,111.7a4.88,4.88,0,0,0,.76,4.25,3.59,3.59,0,0,0,2.9,1.51h128a3.65,3.65,0,0,0,3-1.58,4.89,4.89,0,0,0,.65-4.38L493.7,358.26l1.9-.62L532.05,469.1a6.89,6.89,0,0,1-.93,6.17A5.61,5.61,0,0,1,526.55,477.68Z" style="fill:#e0e0e0"></path><path d="M416.24,345.61c0-.31-.06-.63-.07-.94-.27-6,2.16-11.76,4.5-17.29,6.28-14.84,12.35-30.59,10.59-46.6-2.34-21.18-17.87-38.7-23.41-59.18a5.54,5.54,0,0,0-5.36-4.07h0a5.55,5.55,0,0,0-5.31,7.21c6.17,19.16,20.25,35.95,22.47,56,1.76,16-4.31,31.76-10.59,46.6-2.34,5.53-4.77,11.29-4.5,17.29S408.67,357,414.61,358h88.24a5.57,5.57,0,0,0,5.57-5.57v-1.2a5.57,5.57,0,0,0-5.57-5.57Z" style="fill:#455a64"></path><path d="M635.69,214.34h0a2.12,2.12,0,0,0-2.47,1.69l-11.8,62.54H564a1.56,1.56,0,0,0-1.56,1.56h0a1.56,1.56,0,0,0,1.56,1.55h60.86v-.25l.28.05,12.2-64.67A2.11,2.11,0,0,0,635.69,214.34Z" style="fill:#e0e0e0"></path><rect x="507.96" y="283.87" width="9.85" height="193.59" style="fill:#455a64"></rect><rect x="682.72" y="282.87" width="9.85" height="194.82" style="fill:#455a64"></rect><rect x="494.48" y="281.96" width="211.28" height="11.64" style="fill:#455a64"></rect><path d="M705.76,293.6c0,.14-47,.26-104.92.26s-104.93-.12-104.93-.26,47-.26,104.93-.26S705.76,293.46,705.76,293.6Z" style="fill:#263238"></path><path d="M654.86,194.35a3.55,3.55,0,0,0-3.39,1.45,5.68,5.68,0,0,0-.81,3.44,5.46,5.46,0,0,0,.94,3.21,6,6,0,0,0,3.9,2.13,8.87,8.87,0,0,0,4.22-.53,11.37,11.37,0,0,0-.34-4.64,7.41,7.41,0,0,0-1.36-3.14A5.12,5.12,0,0,0,654.86,194.35Z" style="fill:#455a64"></path><path d="M685.68,191.09a2.48,2.48,0,0,1-.13.48c-.12.35-.27.8-.45,1.36-.41,1.18-1,2.89-1.62,5s-1.38,4.67-2.11,7.52-1.43,6-2.06,9.33-1.11,6.54-1.48,9.45-.62,5.56-.78,7.77-.27,4-.32,5.26c0,.6-.06,1.07-.08,1.43a2.8,2.8,0,0,1,0,.5,2.73,2.73,0,0,1,0-.5c0-.36,0-.84,0-1.43,0-1.25.07-3.05.21-5.27s.36-4.87.7-7.8.83-6.13,1.45-9.47,1.37-6.5,2.1-9.35,1.5-5.4,2.19-7.52,1.28-3.82,1.72-5l.52-1.34A2.81,2.81,0,0,1,685.68,191.09Z" style="fill:#263238"></path><path d="M657.81,201a1.62,1.62,0,0,1,.27.38l.71,1.15c.62,1,1.47,2.47,2.46,4.32s2.11,4.07,3.27,6.6,2.3,5.34,3.4,8.35,2,5.93,2.72,8.6,1.3,5.1,1.71,7.16.71,3.73.87,4.89l.19,1.33a2.38,2.38,0,0,1,0,.47,2.14,2.14,0,0,1-.11-.46c-.07-.33-.15-.77-.26-1.32-.2-1.15-.53-2.81-1-4.86s-1-4.46-1.78-7.12-1.67-5.56-2.74-8.57-2.25-5.81-3.37-8.34S662,208.83,661,207s-1.77-3.34-2.35-4.36l-.65-1.18A2.47,2.47,0,0,1,657.81,201Z" style="fill:#263238"></path><rect x="667.06" y="235.24" width="16.65" height="1.56" rx="0.76" style="fill:#FF725E"></rect><path d="M689.15,252.83c-.55-6.1-5.36-6.93-6.28-7.58a2.33,2.33,0,0,1-.53-.51,4,4,0,0,1-.86-2.55V236H669.43v6.16a4,4,0,0,1-.86,2.55,2.33,2.33,0,0,1-.53.51c-.92.65-5.73,1.48-6.28,7.58s-2.59,19.95,1,24.38c3.32,4.09,6.56,4.33,12,4.34h1.43c5.4,0,8.64-.25,12-4.34C691.74,272.78,689.7,258.92,689.15,252.83Z" style="fill:#FF725E"></path><path d="M683.33,236.85c0,.1-3.56.19-7.94.19s-7.95-.09-7.95-.19,3.56-.18,7.95-.18S683.33,236.75,683.33,236.85Z" style="fill:#263238"></path><path d="M693,186.4a4.28,4.28,0,0,0-3.46-2.46,8.6,8.6,0,0,0-4.34.75,6.64,6.64,0,0,0-3.15,2.24,5,5,0,0,0-.31,4.47A9,9,0,0,0,684.6,195a15.6,15.6,0,0,0,5.09-2.31,8.18,8.18,0,0,0,2.82-2.6A4.2,4.2,0,0,0,693,186.4Z" style="fill:#455a64"></path><path d="M654.11,216.67a3.35,3.35,0,0,1,0-3.33,6.77,6.77,0,0,1,2.44-2.46,5.21,5.21,0,0,1,2.86-1,3.89,3.89,0,0,1,3,1.82,7.13,7.13,0,0,1,1,3.47,12.41,12.41,0,0,1-3.78,2.24,6.56,6.56,0,0,1-2.94.64A3.29,3.29,0,0,1,654.11,216.67Z" style="fill:#455a64"></path><path d="M670.48,209.12a3.37,3.37,0,0,1,0-3.34,6.93,6.93,0,0,1,2.44-2.46,5.12,5.12,0,0,1,2.86-1,3.89,3.89,0,0,1,3,1.82,7,7,0,0,1,1,3.47,12.13,12.13,0,0,1-3.77,2.23,6.45,6.45,0,0,1-2.95.65A3.33,3.33,0,0,1,670.48,209.12Z" style="fill:#455a64"></path><path d="M692.12,207.94a3.4,3.4,0,0,0,.48-3.35,6.92,6.92,0,0,0-2.13-2.79,5.2,5.2,0,0,0-2.73-1.4,3.93,3.93,0,0,0-3.28,1.42,7.15,7.15,0,0,0-1.5,3.35,12.73,12.73,0,0,0,3.5,2.75,6.69,6.69,0,0,0,2.87,1A3.33,3.33,0,0,0,692.12,207.94Z" style="fill:#455a64"></path><path d="M669.52,199.43a3.15,3.15,0,0,0-2-2.58,4.08,4.08,0,0,0-2.88.48,4.74,4.74,0,0,0-2.23,2,6.9,6.9,0,0,0-.59,4.3,9,9,0,0,0,1.56,3.65,9,9,0,0,0,3.5-1.94A7.07,7.07,0,0,0,668.9,203,5.9,5.9,0,0,0,669.52,199.43Z" style="fill:#455a64"></path><path d="M676.81,190.81a3.54,3.54,0,0,0-3.39,1.44,5.81,5.81,0,0,0-.82,3.45,5.46,5.46,0,0,0,.94,3.21,6,6,0,0,0,3.91,2.13,8.81,8.81,0,0,0,4.21-.53,11.53,11.53,0,0,0-.33-4.64,7.43,7.43,0,0,0-1.37-3.14A5.05,5.05,0,0,0,676.81,190.81Z" style="fill:#455a64"></path><path d="M663.73,201.54a12.4,12.4,0,0,1-.1,1.8,36.4,36.4,0,0,0-.07,4.32,30.32,30.32,0,0,0,.54,4.28,14.65,14.65,0,0,1,.35,1.76,6.12,6.12,0,0,1-.6-1.7,21.77,21.77,0,0,1-.65-4.32,24.68,24.68,0,0,1,.18-4.36A6.93,6.93,0,0,1,663.73,201.54Z" style="fill:#263238"></path><path d="M667,219.7a30,30,0,0,0-1.94-2.62,10.24,10.24,0,0,0-1.7-1.51c-.48-.33-.83-.46-.81-.51s.4,0,.94.29a7.32,7.32,0,0,1,1.84,1.49A6.14,6.14,0,0,1,667,219.7Z" style="fill:#263238"></path><path d="M679.49,207.24a5.52,5.52,0,0,1,.58,2.49,5.38,5.38,0,0,1-.3,2.53c-.11,0,0-1.14-.06-2.51S679.38,207.27,679.49,207.24Z" style="fill:#263238"></path><path d="M683.76,204a11.86,11.86,0,0,1-1.53,2.52,11.73,11.73,0,0,1-1.82,2.3,11.45,11.45,0,0,1,1.53-2.51A12.41,12.41,0,0,1,683.76,204Z" style="fill:#263238"></path><path d="M681.5,203.74a6.68,6.68,0,0,1-.07-2.17,6.61,6.61,0,0,1,.29-2.16,13.14,13.14,0,0,1-.22,4.33Z" style="fill:#263238"></path><path d="M663,263.57a11.81,11.81,0,0,1-.24-2.29c-.08-1.42-.11-3.39,0-5.56.06-1.08.11-2.11.25-3.05a5.81,5.81,0,0,1,.82-2.4,3.56,3.56,0,0,1,1.21-1.2,1.44,1.44,0,0,1,.59-.22A4.42,4.42,0,0,0,664,250.4a6.11,6.11,0,0,0-.7,2.31c-.12.92-.16,1.95-.21,3-.1,2.16-.11,4.11-.09,5.53A19.37,19.37,0,0,1,663,263.57Z" style="fill:#263238"></path></g><g id="freepik--character-1--inject-70"><path d="M365.34,345.39c0-.31.06-.62.08-.94.26-6-2.17-11.72-4.51-17.24-6.28-14.8-12.35-30.5-10.58-46.47,2.33-21.12,17.86-38.58,23.4-59a5.53,5.53,0,0,1,5.36-4h0a5.54,5.54,0,0,1,5.32,7.19c-6.18,19.1-20.26,35.84-22.48,55.87-1.76,16,4.31,31.67,10.59,46.47,2.34,5.52,4.77,11.26,4.5,17.24s-4.11,12.29-10,13.24H278.73a5.55,5.55,0,0,1-5.57-5.55v-1.2a5.56,5.56,0,0,1,5.57-5.55Z" style="fill:#455a64"></path><path d="M383.08,477.68H255a5.63,5.63,0,0,1-4.57-2.41,6.91,6.91,0,0,1-.93-6.18L286,357.38l1.9.63-36.45,111.7a4.91,4.91,0,0,0,.65,4.39,3.65,3.65,0,0,0,2.95,1.58h128a3.59,3.59,0,0,0,2.9-1.51,4.92,4.92,0,0,0,.76-4.27L355.42,358l1.92-.53,31.33,111.94a6.93,6.93,0,0,1-1.1,6A5.61,5.61,0,0,1,383.08,477.68Z" style="fill:#e0e0e0"></path><path d="M203.48,274.93s4.66-11.33,9.27-13.73a59.58,59.58,0,0,1,10.47-3.93h20.51l.21,13.28a9.06,9.06,0,0,1-7,2.41c-4.06-.56-14.19-3.07-14.19-3.07l-5,.27-4.61,5.92s-3.75,1.13-2.43-2.41,1.91-5.1,1.91-5.1-4.43,6.89-6.13,7.21A3.75,3.75,0,0,1,203.48,274.93Z" style="fill:#6f4439"></path><path d="M288.25,232.19l-16.32,23.48-28.2,1.6-.38,12.88,21.24,4.18a34.22,34.22,0,0,0,30.49-9.05h0l3.11-28.39Z" style="fill:#ae7461"></path><path d="M266.73,422.39l22.71,22.21s-16.4,31.66-12.63,36.19l47.41-44.61-33.88-36.13Z" style="fill:#263238"></path><path d="M302.26,428.87a2.51,2.51,0,0,1,3.31.82,2.55,2.55,0,0,1-1,3.32c-1.13.65-3,.25-3.51-.89a2.69,2.69,0,0,1,1.4-3.36" style="fill:#e0e0e0"></path><path d="M324.22,436.18l-3.57-3.5-44.12,44.08s-1.29,2.85.28,4Z" style="fill:#455a64"></path><path d="M288.45,445.1c.22.21,1.47-.78,3.27-1.15s3.28,0,3.41-.31-1.41-1.23-3.58-.74S288.21,444.94,288.45,445.1Z" style="fill:#fff"></path><path d="M285.32,451.71c.15.27,1.5-.31,3.16-.12s2.82.94,3,.72-.8-1.6-2.88-1.79S285.13,451.5,285.32,451.71Z" style="fill:#fff"></path><path d="M287.82,460c.25-.16-.46-1.55-2.19-2.19s-3.26-.09-3.19.18,1.35.29,2.76.83S287.56,460.18,287.82,460Z" style="fill:#fff"></path><path d="M283.87,439.43c.29.11,1.07-1.19,2.45-2.34s2.78-1.72,2.72-2-1.77-.15-3.39,1.22S283.6,439.37,283.87,439.43Z" style="fill:#fff"></path><path d="M277.82,294.67c-3.47,0-88,24.61-97.12,32.93s-16,111.3-16,111.3L200.15,451s7.47-50.29,12-66.53a83,83,0,0,0,2.77-25L285.07,329Z" style="fill:#263238"></path><path d="M280,300.11c-1.58.7-63,26.91-68.74,44.47-4.71,14.31.76,26.91,7.33,36.76,7.41,11.12,61.79,60.74,61.79,60.74L311,420.14,258.41,365.8S286,348.75,287,348.75s29.65-1.89,38.75-2.92c8.49-1,13.14-13.15,13.14-13.15l7.58-34.93-56.95-13.14Z" style="fill:#263238"></path><path d="M280,300.11s.2-.35.6-1l1.8-3c1.61-2.62,4-6.5,7-11.55l0-.05h.07l57,13.06.17,0,0,.17-7.55,34.94v0h0a30.51,30.51,0,0,1-5.41,8.75,15.66,15.66,0,0,1-4.16,3.32,6.47,6.47,0,0,1-1.23.56,7.87,7.87,0,0,1-1.3.42c-.45.08-.9.19-1.35.25l-1.35.15c-7.18.71-14.62,1.24-22.27,1.8l-11.63.79-3,.18H287c-.08,0-.07,0-.1,0l-.15.07c-.21.09-.43.21-.65.32l-1.3.72c-1.73,1-3.45,2-5.18,3-6.91,4.13-13.94,8.44-21.09,12.84l0-.39,41.09,42.43L311.21,420l.21.21-.24.18-30.7,21.94-.17.12-.15-.14q-16.49-15.11-31.56-29.5c-5-4.79-9.88-9.52-14.56-14.2s-9.23-9.29-13.33-14.08c-.54-.58-1-1.24-1.47-1.86a22.71,22.71,0,0,1-1.36-1.9c-.85-1.31-1.66-2.62-2.41-4a54.79,54.79,0,0,1-3.81-8.21,41.08,41.08,0,0,1-2.12-8.51,35.4,35.4,0,0,1,0-8.48,31.45,31.45,0,0,1,1.91-7.94,23.06,23.06,0,0,1,4.53-6.41,76.46,76.46,0,0,1,11.32-9.33A220,220,0,0,1,248.74,315c6.47-3.45,12.13-6.22,16.76-8.41s8.25-3.82,10.7-4.9L279,300.5l1-.39s-.32.16-.94.44l-2.77,1.24c-2.44,1.11-6.05,2.76-10.66,5s-10.26,5-16.72,8.48a223.4,223.4,0,0,0-21.42,12.91,76.17,76.17,0,0,0-11.25,9.31,22.75,22.75,0,0,0-4.44,6.31,30.25,30.25,0,0,0-1.87,7.84A34.59,34.59,0,0,0,210,360a39.8,39.8,0,0,0,2.11,8.42,53.42,53.42,0,0,0,3.79,8.14c.74,1.33,1.55,2.63,2.4,3.93a22.28,22.28,0,0,0,1.35,1.88c.48.61.91,1.25,1.45,1.83,4.08,4.76,8.63,9.36,13.32,14s9.56,9.39,14.57,14.18c10,9.56,20.58,19.41,31.57,29.48l-.32,0,30.69-21.95,0,.39-11.53-11.91L258.23,366l-.22-.22.26-.17c7.16-4.4,14.19-8.71,21.11-12.84,1.73-1,3.46-2.05,5.19-3l1.31-.73.68-.34.2-.08a.68.68,0,0,1,.25-.05l.36,0,2.95-.18,11.63-.78c7.64-.55,15.08-1.07,22.26-1.77a11.92,11.92,0,0,0,5.06-1.33,15.39,15.39,0,0,0,4.05-3.21,30.27,30.27,0,0,0,5.33-8.61v0c2.75-12.64,5.32-24.43,7.61-34.92l.14.21-56.93-13.22.11,0-7.15,11.52-1.84,2.95C280.17,299.79,280,300.11,280,300.11Z" style="fill:#455a64"></path><path d="M285.54,132.17a5.76,5.76,0,0,1-3.41-10.94,6,6,0,0,1,4.33-10.52,7.16,7.16,0,0,1,10.25-6.79,8.06,8.06,0,0,1,9.87-1.06,5.73,5.73,0,0,1,5.89,9.25" style="fill:#263238"></path><path d="M308.31,108.41l-1.26.11A24.43,24.43,0,0,0,284.77,133c.09,11.85.35,24.93,1,31.23,1.32,13,14.56,13.92,14.56,13.92l.28,15.78,31.61-3.78L330,133C329.94,119.38,322,108,308.31,108.41Z" style="fill:#ae7461"></path><path d="M300.29,178.19a31.78,31.78,0,0,0,16.58-6.53s-3.36,10-16.5,10Z" style="fill:#6f4439"></path><path d="M289.48,145.15a1.89,1.89,0,0,0,2,1.73,1.79,1.79,0,0,0,1.77-1.85,1.88,1.88,0,0,0-2-1.73A1.8,1.8,0,0,0,289.48,145.15Z" style="fill:#263238"></path><path d="M288.15,139.19c.25.22,1.57-.95,3.58-1.12s3.56.7,3.76.43c.1-.12-.18-.53-.86-.94a5.1,5.1,0,0,0-3-.65,4.89,4.89,0,0,0-2.82,1.19C288.19,138.63,288,139.09,288.15,139.19Z" style="fill:#263238"></path><path d="M307.53,144.12a1.88,1.88,0,0,0,2,1.72,1.8,1.8,0,0,0,1.78-1.85,1.88,1.88,0,0,0-2-1.73A1.8,1.8,0,0,0,307.53,144.12Z" style="fill:#263238"></path><path d="M307.9,137.82c.26.22,1.58-.95,3.59-1.12s3.56.7,3.76.43c.1-.12-.18-.53-.86-.94a5.1,5.1,0,0,0-3-.65,4.89,4.89,0,0,0-2.82,1.19C308,137.26,307.78,137.72,307.9,137.82Z" style="fill:#263238"></path><path d="M301.94,153.34a13.66,13.66,0,0,0-3.31-.3c-.52,0-1-.06-1.13-.41a2.57,2.57,0,0,1,.2-1.54c.38-1.29.77-2.63,1.18-4,1.61-5.74,2.73-10.45,2.5-10.51s-1.73,4.54-3.34,10.28l-1.11,4.06a3,3,0,0,0-.09,2,1.31,1.31,0,0,0,.91.68,3.4,3.4,0,0,0,.88,0A12.75,12.75,0,0,0,301.94,153.34Z" style="fill:#263238"></path><path d="M305.48,130.25c.31.48,2-.22,4.09-.48s3.93-.06,4.08-.6c.06-.26-.36-.69-1.16-1a6.33,6.33,0,0,0-3.23-.38,6.11,6.11,0,0,0-3,1.21C305.61,129.5,305.34,130,305.48,130.25Z" style="fill:#263238"></path><path d="M287.32,130.92c.46.42,2.07-.2,4.06-.4s3.71,0,4.05-.53c.15-.25-.15-.68-.93-1.05a6.5,6.5,0,0,0-3.37-.45,6.4,6.4,0,0,0-3.17,1.2C287.3,130.22,287.11,130.71,287.32,130.92Z" style="fill:#263238"></path><path d="M285.5,126.94s2.72-8.48,6.5-10.74c4.57-2.73,7.08,2.33,11.52.66s8.8-4.3,13.76-1.19c5.43,3.4,3.28,6.31,4.11,12.08,3.35,23.38,8.23,29.64,8.47,18.47,0-1.23,3.31-2.49,3.35-7.66.06-6.69-.39-14.78-2.29-19.36-1.6-3.87-4.11-6.41-8.44-9.08-6.84-4.21-15.65-3.53-21.58-2.4S284.05,116.75,285.5,126.94Z" style="fill:#263238"></path><path d="M329,145.93a3.55,3.55,0,0,1,3.52-3.75c2.46,0,5.29,1.16,5.58,6.21.5,9-8.59,7.61-8.62,7.35S329.18,149.68,329,145.93Z" style="fill:#ae7461"></path><path d="M331.24,152.27s.16.1.43.2a1.54,1.54,0,0,0,1.17,0c.92-.4,1.63-2,1.59-3.56a5.16,5.16,0,0,0-.57-2.21,1.79,1.79,0,0,0-1.24-1.13.77.77,0,0,0-.89.48c-.11.25,0,.43-.09.45s-.2-.14-.15-.52a1,1,0,0,1,.32-.58,1.21,1.21,0,0,1,.85-.27,2.2,2.2,0,0,1,1.71,1.29,5.19,5.19,0,0,1,.68,2.47c.05,1.81-.78,3.55-2.06,4a1.7,1.7,0,0,1-1.44-.15C331.26,152.48,331.21,152.28,331.24,152.27Z" style="fill:#6f4439"></path><path d="M327.3,128.65a8.47,8.47,0,0,1-3.63,2.08c-1.39.26-3.06-.4-3.41-1.76-.16-.61-.08-1.35-.53-1.79s-1.42-.27-2.16-.13c-2.57.51-5.86-2.09-6.74-4.56a2.34,2.34,0,0,1-3.06.92,8.15,8.15,0,0,1-2.32-1.72,3.69,3.69,0,0,0-3.2-1.26,9.09,9.09,0,0,1-1.9.6c-1.19,0-1.88-1.32-2.16-2.47s-.54-2.5-1.59-3-2.13-.06-3.2.19-2.48.13-2.85-.9a2.14,2.14,0,0,1,.26-1.66,5.8,5.8,0,0,1,6.63-2.79,7.87,7.87,0,0,1,14.27-2.79,8,8,0,0,1,13,1.77,5.79,5.79,0,0,1,7.24,7.81,5.53,5.53,0,0,1,3.4,4.1c.19,1.84-1.44,3.84-3.27,3.51a3.21,3.21,0,0,1-5.24,3.68" style="fill:#263238"></path><path d="M297,113s0,.06,0,.17,0,.27.09.47a5.75,5.75,0,0,0,.8,1.66,6.53,6.53,0,0,0,2.17,1.94,6.05,6.05,0,0,0,3.75.72l-.17-.19a3.24,3.24,0,0,0,.4,2.45,9.06,9.06,0,0,0,1.72,2.06,6.77,6.77,0,0,0,1.09.94,3.1,3.1,0,0,0,1.46.4,3.26,3.26,0,0,0,2.78-1.28l-.34-.07a6.75,6.75,0,0,0,3.25,4.38,4.91,4.91,0,0,0,3,.7,8.76,8.76,0,0,0,2.83-.89l-.25-.08A7.05,7.05,0,0,0,322,129a3.78,3.78,0,0,0,3.19.57,4.93,4.93,0,0,0,3.44-4.18l-.19.11a4.63,4.63,0,0,0,3.11.18,5,5,0,0,0,2-1.14,4.2,4.2,0,0,0,.9-1.18,1.75,1.75,0,0,0,.19-.49,5.41,5.41,0,0,1-1.19,1.55,4.88,4.88,0,0,1-2,1,4.47,4.47,0,0,1-2.94-.22l-.17-.08,0,.19a4.65,4.65,0,0,1-3.27,3.88,3.36,3.36,0,0,1-2.89-.55,6.63,6.63,0,0,1-2.22-2.44l-.08-.15-.17.07A8.48,8.48,0,0,1,317,127a4.54,4.54,0,0,1-2.78-.66,6.39,6.39,0,0,1-3.08-4.13l-.09-.41-.25.35a2.88,2.88,0,0,1-2.46,1.13,2.7,2.7,0,0,1-1.29-.34,6.42,6.42,0,0,1-1-.88,9,9,0,0,1-1.68-2,3,3,0,0,1-.39-2.21l.06-.22-.23,0a5.71,5.71,0,0,1-3.59-.63,6.4,6.4,0,0,1-2.14-1.83A6.76,6.76,0,0,1,297,113Z" style="fill:#455a64"></path><path d="M302.11,159.77c0-.34,2.26-.07,4.07-1.8s1.86-4.13,2.18-4.11c.14,0,.37.58.27,1.59A5.57,5.57,0,0,1,307,158.9a4.88,4.88,0,0,1-3.4,1.36C302.6,160.24,302.08,159.92,302.11,159.77Z" style="fill:#263238"></path><path d="M171.78,422.88l-4.53,31.44s-35.23,5.44-36.66,11.16l64,11.95,9.17-48.66Z" style="fill:#263238"></path><path d="M187.52,455.39a2.52,2.52,0,0,1,1.29,3.16,2.56,2.56,0,0,1-3.26,1.17c-1.19-.53-2-2.28-1.34-3.35a2.67,2.67,0,0,1,3.53-.86" style="fill:#e0e0e0"></path><path d="M194.58,477.43l.72-4.94-61.62-9.61s-3.07.64-3.09,2.6Z" style="fill:#455a64"></path><path d="M166.27,453.82c0,.3,1.5.72,2.86,2s2,2.64,2.26,2.57.16-1.86-1.52-3.33S166.25,453.53,166.27,453.82Z" style="fill:#fff"></path><path d="M159.08,455.19c-.13.28,1.14,1,2,2.48s.89,2.83,1.21,2.88.82-1.59-.25-3.38S159.14,454.91,159.08,455.19Z" style="fill:#fff"></path><path d="M153.87,462.09c.28.12,1-1.28.48-3s-1.85-2.69-2-2.47.57,1.26,1,2.72S153.57,462,153.87,462.09Z" style="fill:#fff"></path><path d="M168.14,446.78c.08.29,1.59.15,3.34.6s3,1.23,3.23,1-.92-1.52-3-2S168,446.52,168.14,446.78Z" style="fill:#fff"></path><path d="M299.16,196l1.2-5.42,31.84-15.82,2.78,4.34s11.91,9.7,16.48,18.11-.85,77.34-1.61,87.39c-1.54,20.27-9.11,46.8-9.11,46.8S330.52,324.3,300.46,312,268.79,294,268.79,294l17.71-22.46Z" style="fill:#FF725E"></path><path d="M299.64,197.9c-.18,1-14.57,35.57-14.57,35.57s7.48,4.17,8.52,4.38S299.64,197.9,299.64,197.9Z" style="fill:#FF725E"></path><path d="M298.19,203.57c.14,0-1.13,8.81-2.85,19.61s-3.23,19.56-3.37,19.54,1.14-8.8,2.85-19.62S298.05,203.55,298.19,203.57Z" style="fill:#263238"></path><path d="M197.17,272.71s8.58-12.65,13.69-14.87a62.63,62.63,0,0,1,11.51-3.43l21.57,2.88-.39,12.88a9.7,9.7,0,0,1-7.7,2.06c-4.3-.91-15-4.35-15-4.35l-5.38-.08-5.38,6s-4.09.94-2.42-2.76l2.42-5.32s-5.25,7.05-7.09,7.26A37.35,37.35,0,0,1,197.17,272.71Z" style="fill:#ae7461"></path><path d="M309.88,222l-14.95,34.75-51.2.5-.38,12.88s49.37,17.41,62.51,14,34.95-49.87,34.95-49.87Z" style="fill:#ae7461"></path><path d="M322,192.71c-1.4,1.26-6,6.7-11,18.51s-11.87,25.62-11.87,25.62l35.29,14.07s8.05-18.52,11.79-26.75c2.84-6.27,4.83-18.61,2.24-24.58S334.28,181.56,322,192.71Z" style="fill:#FF725E"></path><path d="M322,192.71a3,3,0,0,1,.32-.31c.23-.2.54-.51,1-.86a17.33,17.33,0,0,1,4.35-2.57,13.23,13.23,0,0,1,7.92-.59,18.81,18.81,0,0,1,9,5.41,21.64,21.64,0,0,1,3.69,5,16.19,16.19,0,0,1,1.53,6.54A46.4,46.4,0,0,1,348,219.93a54.7,54.7,0,0,1-2.92,7.45c-1.1,2.49-2.21,5-3.35,7.62-2.27,5.17-4.63,10.52-7.05,16l-.1.23-.23-.09-.51-.21-34.78-13.88-.23-.1.11-.23c3.3-6.61,6.22-12.76,8.72-18.28s4.42-10.47,6.5-14.35a59.72,59.72,0,0,1,5.39-8.69,25.81,25.81,0,0,1,1.74-2.07,6.3,6.3,0,0,1,.69-.63l-.16.17-.47.51c-.4.46-1,1.16-1.68,2.11a62.75,62.75,0,0,0-5.26,8.73c-2,3.87-3.9,8.85-6.4,14.38s-5.37,11.71-8.65,18.33l-.12-.32L334,250.46l.51.2-.33.14c2.41-5.48,4.78-10.84,7.06-16l3.35-7.61a53.83,53.83,0,0,0,2.92-7.38,46.42,46.42,0,0,0,1.86-14.48A15.67,15.67,0,0,0,348,199a21.29,21.29,0,0,0-3.59-4.91,18.79,18.79,0,0,0-8.85-5.38,13.2,13.2,0,0,0-7.78.49,18.2,18.2,0,0,0-4.36,2.47c-.46.34-.79.64-1,.82Z" style="fill:#263238"></path><path d="M219.8,260.91a16.08,16.08,0,0,0-5.46,1.39,16.3,16.3,0,0,0-4.35,3.57,3.88,3.88,0,0,1,.88-1.46,10.17,10.17,0,0,1,3.24-2.58,10.32,10.32,0,0,1,4-1.08A4.07,4.07,0,0,1,219.8,260.91Z" style="fill:#6f4439"></path><path d="M302.87,238.32a2.2,2.2,0,0,1-.11.36l-.4,1-1.56,3.8-5.66,13.38-.06.14h-.15l-15.55.18-25.21.16h-7.64l-2.07,0a3.18,3.18,0,0,1-.73-.05,3.47,3.47,0,0,1,.73-.06l2.07-.07,7.64-.15,25.21-.33,15.55-.12-.22.14,5.83-13.3c.71-1.57,1.27-2.83,1.68-3.75.19-.4.34-.72.47-1A1.28,1.28,0,0,1,302.87,238.32Z" style="fill:#6f4439"></path><rect x="164.27" y="279.6" width="65.81" height="3.11" transform="translate(394.34 562.32) rotate(180)" style="fill:#e0e0e0"></rect><rect x="55.11" y="284.61" width="9.85" height="192.82" style="fill:#455a64"></rect><rect x="260.47" y="285.97" width="9.85" height="191.48" style="fill:#455a64"></rect><rect x="41.63" y="282.71" width="238.46" height="11.64" style="fill:#455a64"></rect><path d="M146.39,119.09,139,120.31s-8.12,29.61-2.12,71.59c5.64,39.49,16.4,54.41,16.4,54.41l7.79-1.88Z" style="fill:#e0e0e0"></path><path d="M140.75,194l-2.21-8.19c-.51.22-11.32,2.92-13.75,9.42s0,80.3,0,80.3l.27,7.18h7.5S130,203,131.73,199.49C134,194.87,135.89,194.29,140.75,194Z" style="fill:#e0e0e0"></path><rect x="125.01" y="278.34" width="35.22" height="4.37" style="fill:#e0e0e0"></rect><path d="M153.23,246.31c-.14,0-3.46-28.18-7.4-63s-7-63-6.88-63,3.45,28.17,7.4,63S153.37,246.29,153.23,246.31Z" style="fill:#455a64"></path><rect x="52.74" y="274.7" width="63.67" height="8.83" style="fill:#FF725E"></rect><rect x="52.74" y="275.81" width="62.63" height="6.59" style="fill:#f5f5f5"></rect><g style="opacity:0.30000000000000004"><rect x="104.04" y="274.7" width="12.37" height="8.83"></rect></g><path d="M115.37,277.25h-2.46l-6.72,0H61.86l-6.72,0h0l6.72,0h44.33l6.72,0h2.46Z" style="fill:#263238"></path><path d="M115.37,279H61.86L84,279l22.17,0h9.18Z" style="fill:#263238"></path><path d="M104.07,283.39s0-1.93,0-4.3,0-4.29,0-4.29,0,1.92,0,4.29S104.1,283.39,104.07,283.39Z" style="fill:#263238"></path><rect x="63.27" y="266.53" width="44.03" height="8.17" style="fill:#455a64"></rect><rect x="99.15" y="266.58" width="11.98" height="8.08" style="fill:#455a64"></rect><rect x="100.28" y="267.68" width="10.86" height="5.8" style="fill:#f5f5f5"></rect><g style="opacity:0.30000000000000004"><rect x="99.15" y="266.58" width="11.98" height="8.08"></rect></g><path d="M95.93,272.91s0-.08,0-.23V272c0-.58,0-1.43,0-2.54l0,0-30,0h0l0-.05v3.42l0-.05,21.27,0,6.36,0h0l-6.35,0L66,273h0v-3.51h0l30,0h0v0c0,1.11,0,2,0,2.55v.87Z" style="fill:#263238"></path><path d="M99.16,274.65s0-1.83,0-4.09,0-4.09,0-4.09,0,1.83,0,4.09S99.19,274.65,99.16,274.65Z" style="fill:#263238"></path><path d="M275.77,294.35c0,.14-52.37.26-116.95.26s-116.95-.12-116.95-.26,52.35-.26,117-.26S275.77,294.21,275.77,294.35Z" style="fill:#263238"></path></g></svg>
